<?xml version="1.0" encoding="UTF-8"?>
<!DOCTYPE svg PUBLIC "-//W3C//DTD SVG 1.1//EN" "http://www.w3.org/Graphics/SVG/1.1/DTD/svg11.dtd">
<!-- Creator: CorelDRAW 2019 (64-Bit) -->
<svg xmlns="http://www.w3.org/2000/svg" xml:space="preserve" width="80px" height="80px" version="1.1" style="shape-rendering:geometricPrecision; text-rendering:geometricPrecision; image-rendering:optimizeQuality; fill-rule:evenodd; clip-rule:evenodd"
viewBox="0 0 80 80"
 xmlns:xlink="http://www.w3.org/1999/xlink"
 xmlns:xodm="http://www.corel.com/coreldraw/odm/2003">
 <defs>
  <style type="text/css">
   <![CDATA[
    .fil3 {fill:#FD8E8E}
    .fil2 {fill:#FDCDCD}
    .fil1 {fill:#FDF2F2}
    .fil0 {fill:#FE0000}
    .fil6 {fill:#FE4242}
    .fil5 {fill:#FE6565}
    .fil4 {fill:#FEADAD}
   ]]>
  </style>
   <clipPath id="id0">
    <rect x="-79.89" y="0.84" width="58.22" height="58.21"/>
   </clipPath>
 </defs>
 <g id="Слой_x0020_1">
  <metadata id="CorelCorpID_0Corel-Layer"/>
  <g style="clip-path:url(#id0)">
   <image id="холст_x0020_с_x0020_рамкой.png" x="-79.89" y="0.84" width="58.21" height="58.21" xlink:href="holstbr_Images\holstbr_ImgID1.png"/>
  </g>
  <g id="_2277518665936">
   <path class="fil0" d="M13.72 6.95l0.31 -0.17 0.29 -0.04 0.31 -0.14 0.19 0.02 0.4 -0.07 0.09 0.44 0.01 0.96 0.19 0.9 0.11 2.45c0.25,0.45 0.35,1 0.22,1.57l0.17 1.48 0 1.13 -0.03 0.21 0.17 0.58 0.01 0.79 -0.11 0.39c0.28,0.39 0.19,0.53 0.28,1.1l-0.06 0.52 0.18 0.91 0.03 0.96 0.12 0.68 0.05 0.9 0.13 0.69 -0.02 0.7 0.19 0.79 -0.03 0.91 0.14 0.61 0.02 1.3 0.15 0.78 0.01 1.1 0.2 0.58c0.04,0.24 0.01,0.31 0.01,0.49l-0.09 0.33c0.2,0.34 0.15,0.27 0.22,0.8 0.04,0.3 0.06,0.47 0.06,0.76l-0.12 0.35 0.28 1.21 -0.03 0.74 -0.03 0.26 0.14 0.65 0.01 1.02 0.18 0.84 -0.04 0.83 0.18 0.8 0.01 1.03 0.16 0.73 -0.02 0.9 0.14 0.63 -0.01 0.76c0.32,0.34 0.29,0.61 0.25,1.08l-0.08 0.9c0.1,0.15 0.06,-0.1 0.17,0.38 0.09,0.38 0.04,0.2 0.02,0.54l-0.05 0.72c0.14,0.21 0.02,-0.18 0.18,0.35 0.02,0.06 0.05,0.24 0.06,0.3 0.06,0.35 0.05,0.52 0.04,0.83l-0.13 0.16c0.12,0.17 0.08,-0.09 0.2,0.47 0.03,0.15 0.04,0.47 0.05,0.63l-0.01 0.64 0.18 0.98 -0.01 0.71 -0.06 0.06 0.12 0.25c0.07,0.19 0.03,0.05 0.09,0.28 0.04,0.17 0.06,0.41 0.07,0.54l-0.07 0.51 -0.03 0.88 0.2 0.96 -0.03 0.8 0.2 0.91 -0.06 0.74 0.21 0.92 -0.01 0.54c0.27,0.28 0.18,-0.03 0.14,0.55l-0.02 1.18c0.27,0.43 0.22,0.41 0.21,1l-0.04 1.05c0.25,0.31 0.18,0.44 0.19,0.94l-0.01 0.63c0.02,0.04 0.06,0.05 0.07,0.13 0.01,0.08 0.05,0.1 0.06,0.14 0.06,0.42 0.04,0.13 0.03,0.55l-0.06 0.58c0.02,0.03 0.06,0.04 0.07,0.1 0.01,0.09 0.22,0.16 0.2,1.38l-0.07 0.55c0.26,0.31 0.2,0.61 0.21,1.09l-0.03 1.17c0.06,0.1 0.08,-0.06 0.16,0.38 0.06,0.3 0.03,0.24 0.04,0.5l-0.04 0.6 0.16 0.6 0.04 0.78 -0.59 -0.01 -0.68 -0.22c-0.7,0 -0.55,-0.59 -0.68,-1.43l0 -0.58 -0.4 -4.35 -0.13 -1.06 0.04 -0.6c-0.24,-0.46 -0.21,-0.58 -0.2,-1.19l0.05 -0.59 -0.25 -1.29 0.04 -0.85 0.01 -0.57 -0.2 -0.87 0.03 -0.52 -0.17 -0.89 0 -0.87 -0.15 -0.76 -0.03 -1.06 -0.11 -0.6 -0.03 -1.03 -0.09 -0.52 -0.02 -1.01 -0.17 -0.86 0.03 -0.76c-0.24,-0.34 -0.18,-0.38 -0.17,-0.9l0.04 -0.73c-0.29,-0.33 -0.23,-0.79 -0.23,-1.32l0.01 -0.49 -0.24 -1.19 0 -1.09 0.03 -0.25c-0.03,-0.04 -0.06,-0.09 -0.08,-0.13 -0.01,-0.05 -0.04,-0.11 -0.05,-0.16 -0.14,-0.45 -0.04,0.14 -0.02,-0.38l0.02 -0.89 -0.21 -0.75 0.03 -0.58 0 -0.34 -0.16 -0.44 0 -0.6 -0.03 -0.66 -0.08 -0.47 -0.03 -1.24 -0.19 -0.87 0.02 -0.7 -0.19 -0.8 0.05 -0.82 -0.19 -0.82 0.06 -0.96c-0.25,-0.39 -0.24,-0.7 -0.23,-1.26l0.02 -0.85c-0.27,-0.57 -0.31,-1.86 -0.39,-2.75l0.07 -0.56 -0.21 -1.33 0.04 -1.06 -0.14 -0.65 0.01 -0.72 -0.19 -0.83 0.01 -1.2 -0.14 -0.63 -0.04 -0.94 -0.16 -0.74 0.02 -0.89 -0.14 -0.64 0.05 -0.79c-0.3,-0.29 -0.24,-0.64 -0.24,-1.1l0.03 -0.85c-0.09,-0.14 -0.07,0.07 -0.17,-0.39 -0.09,-0.38 -0.04,-0.2 -0.02,-0.54l0.05 -0.72c-0.1,-0.15 -0.04,0.11 -0.18,-0.36 -0.01,-0.05 -0.05,-0.24 -0.06,-0.3 -0.06,-0.35 -0.05,-0.5 -0.04,-0.82l0.13 -0.61c-0.17,-0.28 0,0.25 -0.18,-0.36 -0.01,-0.06 -0.04,-0.25 -0.05,-0.31 -0.04,-0.26 -0.03,-0.42 -0.04,-0.66l0.09 -0.6c-0.02,-0.04 -0.05,-0.08 -0.07,-0.11l-0.18 -1.03 0.02 -0.67c-0.21,-0.4 -0.14,0.48 -0.16,-0.46 -0.01,-0.51 -0.14,-0.18 0.22,-0.34zm3.37 -0.81c0.09,-0.05 0.05,-0.09 0.33,-0.13 0.05,0 0.25,-0.01 0.3,0 0.27,0.01 0.38,0.08 0.48,0.12l1.36 -0.06 2.21 0.22 1.33 -0.02c1.14,0.02 4.38,-0.02 5.18,0.36l1.96 -0.01c0.67,-0.06 1.82,-0.07 2.28,0.22l1.29 -0.07c0.63,-0.06 1.65,-0.04 2.11,0.21l1.73 -0.04c0.56,-0.03 1.38,-0.02 1.78,0.2l1.63 -0.05 1.76 0.19 1.36 -0.03c0.59,-0.02 1.34,0 1.76,0.2l2.5 -0.03 1.52 0.18 2.31 0c0.5,-0.02 0.78,-0.09 1.13,0.15l2 -0.04c0.94,-0.08 2.49,0.1 3.43,0.08 0.47,-0.01 1.28,0.08 1.78,0.12 0.71,0.07 0.76,0.19 0.81,0.93l-0.03 0.51 -0.02 0.3c0.31,0.51 0.22,0.62 0.22,1.03l-0.08 0.44c0.37,0.57 0.33,1.79 0.37,2.52l0.03 0.5 0.22 1.12 -0.08 0.51 0 0.77 0.19 0.71 -0.02 0.61 0.14 0.6 0.02 0.99 0.15 0.6 -0.01 1.04 0.17 0.71 -0.02 0.6 0.15 0.61 0 0.85c0.25,0.34 0.22,0.34 0.19,0.87l-0.04 0.89c0.26,0.37 0.2,0.62 0.22,1.06l-0.02 0.47c0.07,0.13 0.04,-0.08 0.16,0.43 0.1,0.43 0.01,-0.19 0.01,0.39l-0.04 0.35c0.17,0.27 0,-0.25 0.19,0.38 0.09,0.32 0.03,0.26 0.03,0.48l0.02 0.9 0.19 0.81 -0.05 0.59 0 0.66 0.13 0.53 0.02 0.81 0.15 0.44 0.03 0.68 -0.04 0.56 0.18 0.44 -0.02 0.41 -0.01 0.63 0.19 0.79 -0.04 0.92c0.24,0.41 0.18,0.27 0.2,0.85l-0.04 0.46c0.23,0.35 0.18,0.21 0.22,0.75l-0.02 0.84 0.21 1.15 -0.1 0.13c0.11,0.14 0.12,0.08 0.2,0.36 0.13,0.41 0.05,0.19 0.03,0.5l0.02 0.99 -0.06 0.39c0.24,0.44 0.18,0.29 0.17,0.88l0.2 0.94 -0.03 0.59 0 0.65 0.21 0.86 -0.04 0.58 0.2 0.5 -0.04 0.54 0.01 0.72 0.14 0.44 0 0.46 0 0.46 0.19 0.46 -0.02 0.53 -0.04 0.52 0.19 0.81 -0.03 0.6 0.22 0.6 -0.03 0.59 -0.05 0.42c0.29,0.24 0.25,0.71 0.25,1.13l-0.1 0.34c0.29,0.2 0.21,0.54 0.23,0.96l0.02 0.56 0.19 1.01 -0.01 0.84 -0.05 0.55c0.2,0.18 0.16,-0.07 0.15,0.56l0.05 0.8 -0.37 0.16 -0.36 0.16 -0.39 0.02 -0.29 0.12 -0.22 0.04 -0.19 -0.03 -0.38 0.16 -0.26 -0.01 -0.28 0.22 -0.31 -0.05 -0.2 -0.02 -0.29 0.21 -0.36 -0.01 -0.34 0.17 -0.42 0.02 -0.37 0.15 -0.41 0.02 -0.39 0.15 -0.35 0.01 -0.21 -0.01 -0.33 0.13 -0.24 0.03 -0.16 -0.03 -0.32 0.18 -0.25 -0.02 -0.21 0.02 -0.36 0.16 -0.46 -0.01 -0.36 0.16 -0.27 0 -0.29 0.14 -0.22 0.04 -0.18 -0.05 -0.48 0.21 -0.16 -0.06 -0.41 0.27 -0.42 -0.09c-0.35,0.29 -0.82,0.3 -1.31,0.36l-0.22 -0.03 -0.44 0.18 -0.3 0.02 -0.23 -0.01 -0.4 0.16 -0.25 0 -0.39 0.17 -0.44 -0.02 -0.36 0.16 -0.31 0 -0.35 0.16 -0.28 -0.01 -0.24 0.22 -0.32 -0.06 -0.23 -0.01 -0.41 0.18 -0.21 -0.02c-0.14,0.23 0.25,0.15 -0.32,0.22l-0.42 -0.02 -0.23 -0.03 -0.56 0.21 -0.06 -0.05c-0.15,0.17 0.25,0.16 -0.49,0.16l-0.48 0.03 -0.48 0.22 -0.16 -0.06 -0.44 0.17 -0.22 -0.02 -0.29 0.22 -0.29 -0.06 -0.2 0.02 -0.27 0.14 -0.25 0.02 -0.32 0 -0.37 0.16 -0.33 -0.03 -0.38 0.16 -0.31 -0.04 -0.46 0.22 -0.28 -0.04 -0.37 0.19 -0.32 -0.01c-0.06,0.2 0.33,0.14 -0.29,0.19l-0.48 0.04 -0.14 -0.09 -0.62 0.27 -0.18 -0.09 -0.53 0.21 -0.2 0 -0.33 0.13 -0.24 0.03 -0.16 -0.03 -0.32 0.18 -0.25 -0.02 -0.21 0.02 -0.36 0.16 -0.46 -0.01 -0.37 0.16 -0.27 -0.01 -0.39 0.17 -0.3 -0.03 -0.48 0.21 -0.16 -0.06c-0.11,0.23 0.2,0.17 -0.4,0.18l-0.4 -0.03c-0.25,0.28 -0.01,0.18 -0.54,0.22l-0.38 -0.03 -0.56 0.22 -0.08 -0.05 -0.43 0.18 -0.3 0.02 -0.23 -0.02 -0.41 0.17 -0.24 0 -0.32 0.12 -0.21 0.04 -0.14 -0.01 -0.3 0.2 -0.29 -0.06 -0.17 0.03c0,0.25 0.05,0.16 -0.25,0.15l-0.27 0.02 -0.2 -0.03 -0.22 0.22 -0.32 -0.06 -0.24 -0.01 -0.4 0.17 -0.21 -0.01c-0.16,0.23 0.25,0.15 -0.32,0.22l-0.42 -0.02 -0.09 -0.05c-0.13,0.2 0.27,0.16 -0.46,0.17l-0.23 -0.04c-0.17,0.19 0.07,0.15 -0.51,0.23l-0.13 -0.03 -0.48 0.32c-0.56,-0.36 -0.24,0.09 -0.45,-0.48 -0.07,-0.2 -0.03,-0.5 -0.04,-0.66l0.02 -0.95 -0.18 -0.62 0.03 -0.44 0 -0.82 -0.19 -0.86 0.01 -0.7c-0.04,-0.09 -0.09,0.04 -0.17,-0.4 -0.07,-0.39 -0.02,-0.22 -0.02,-0.5l0.05 -0.74c-0.27,-0.32 -0.2,-0.43 -0.19,-0.92l0.04 -0.53c-0.02,-0.04 -0.07,-0.14 -0.08,-0.11 -0.01,0.02 -0.06,-0.1 -0.06,-0.13 -0.1,-0.37 -0.06,-0.14 -0.07,-0.48l-0.04 -0.92 -0.11 -0.87 -0.03 -0.98 0.02 -0.85 -0.16 -0.8 0.06 -0.05c-0.02,-0.04 -0.05,-0.13 -0.06,-0.11l-0.19 -0.55c-0.1,-0.56 -0.07,-0.33 -0.02,-0.81l0.09 -1 -0.2 -0.96 0 -0.74 -0.18 -0.61 0.03 -0.42 0.02 -0.8 -0.18 -0.83 0.02 -0.91 -0.21 -0.95 0.03 -0.61c-0.07,-0.12 -0.05,0.02 -0.16,-0.4 -0.11,-0.48 -0.01,0.23 -0.01,-0.37l0.01 -0.97c-0.09,-0.17 -0.02,0.17 -0.16,-0.43 -0.11,-0.46 -0.02,0.19 -0.01,-0.37l0.02 -0.85c-0.08,-0.15 -0.06,-0.06 -0.16,-0.4 -0.09,-0.33 -0.01,0.04 -0.01,-0.35l-0.04 -0.89c-0.23,-0.69 -0.25,-1.79 -0.27,-2.62l-0.08 -0.62 -0.16 -1.47 0.08 -1.26 -0.21 -0.92 0.04 -0.43 -0.18 -0.82 -0.01 -0.88 -0.13 -0.43 -0.01 -0.62 0 -0.74 -0.18 -0.85 0.04 -0.78c-0.25,-0.27 -0.18,-0.31 -0.17,-0.75l0 -0.8c-0.09,-0.14 -0.05,0 -0.19,-0.38 -0.23,-0.64 -0.01,0.13 -0.03,-0.29l0.04 -0.74 0.04 -0.41c-0.1,-0.16 -0.11,-0.01 -0.21,-0.5 -0.06,-0.31 -0.02,-0.42 -0.01,-0.69l0.07 -0.26c-0.11,-0.15 -0.1,-0.07 -0.19,-0.36 -0.1,-0.34 -0.04,-0.21 -0.03,-0.5l0.01 -0.94c-0.02,-0.03 -0.05,-0.08 -0.06,-0.1 0,-0.02 -0.04,-0.07 -0.05,-0.1l-0.07 -0.77 -0.03 -0.95 0.05 -0.63c-0.18,-0.35 -0.32,-2.14 -0.34,-2.64l0.01 -0.73 -0.16 -0.73 -0.01 -0.88 -0.16 -0.55 0 -0.69 0.02 -0.41 -0.18 -0.5 -0.01 -0.75 0.07 -0.43c-0.27,-0.31 -0.21,-0.49 -0.21,-0.95l0.07 -0.93c-0.13,-0.17 -0.09,0.11 -0.21,-0.46 -0.04,-0.25 -0.02,-0.48 -0.02,-0.71l0.06 -0.3c-0.2,-0.27 -0.07,0.06 -0.2,-0.45 -0.02,-0.07 -0.05,-0.44 -0.06,-0.49 -0.03,-0.61 0.01,-0.73 -0.05,-1.29 -0.05,-0.42 -0.09,-0.75 -0.1,-1.17l0.01 -0.85 -0.09 -0.48c-0.11,-0.16 -0.17,-0.16 -0.18,-0.55 -0.02,-0.76 -0.03,-0.35 0.14,-0.49zm-2.7 -1.45c0,0.31 0.09,0.24 -0.21,0.24l-0.38 -0.08c0,0.31 0.07,0.22 -0.27,0.22l-0.27 -0.06c0,0.25 0.06,0.18 -0.21,0.18l-0.29 -0.02c0,0.26 0.06,0.18 -0.22,0.17l-0.14 -0.01 -0.23 0c0,0.27 0.05,0.18 -0.25,0.18 -0.5,0.24 -0.32,0.53 -0.32,1.29l0.17 0.79 -0.01 0.82c0.22,0.38 0.1,-0.43 0.16,0.46 0.05,0.77 0.06,0.18 -0.16,0.41 0.26,0.38 0.32,3.04 0.32,3.79 0.4,0 0.29,-0.09 0.29,0.32l-0.13 1.23c0.19,0.17 0.15,-0.14 0.33,0.54 -0.23,0.6 -0.17,0.46 -0.17,1.14l0.22 0.48 -0.05 1.21c0.03,0.03 0.07,0.08 0.09,0.11 0.02,0.03 0.05,0.09 0.07,0.13 0.08,0.16 0.05,0.13 0.08,0.32l-0.08 0.88 0.23 0.73 -0.07 0.87 0.23 0.74 -0.07 0.87 0.23 0.74 -0.07 1.06 0.19 0.72c-0.07,0.99 0.05,2.49 0.16,3.52 0.11,1.09 0.3,2.27 0.3,3.53 0.18,0.16 0.15,-0.1 0.32,0.52 -0.23,0.58 -0.16,0.4 -0.16,1.07 0.17,0.17 0.15,-0.06 0.31,0.54 -0.21,0.57 -0.15,0.37 -0.15,1.03l0.32 0.75c-0.22,0.57 -0.16,0.38 -0.16,1.05l0.23 0.56 -0.07 1.05 0.23 0.56 -0.07 1.11 0.19 0.66 -0.03 0.9 0.2 0.71 -0.04 0.69 0.19 1.09c-0.1,1.91 0.3,3.43 0.3,5.29l0.31 0.51c-0.21,0.58 -0.15,0.43 -0.15,1.09l0.31 0.52c-0.21,0.59 -0.15,0.49 -0.15,1.15l0.23 0.62 -0.07 0.99 0.23 0.62 -0.07 1.06 0.23 0.56 -0.07 1.12 0.18 0.65 -0.02 0.73 0.21 0.88 -0.04 0.7 0.2 1.07c-0.18,1.83 0.28,3.58 0.28,5.46l0.21 0.35 -0.05 1.11 0.3 0.5c-0.2,0.58 -0.14,0.51 -0.14,1.16l0.23 0.61 -0.07 1 0.23 0.61c-0.16,1.03 -0.31,1.56 0.74,1.37 0.34,0 0.26,-0.09 0.26,0.24l0.38 -0.15 0.31 0.31 0.5 -0.08c0.31,0 0.22,-0.08 0.22,0.25 0.62,0 0.79,0.09 1.35,0.2 0.4,0.08 1.02,0.12 1.65,0.12l0.49 -0.2c0.91,0.08 1.35,-0.26 2.19,-0.29 0,-0.3 -0.08,-0.23 0.22,-0.23l0.54 0.07 0.27 -0.22 0.41 0.06c0,-0.26 -0.05,-0.18 0.23,-0.18l0.44 0.02c0,-0.24 -0.05,-0.17 0.21,-0.17l0.49 0.01 0.32 -0.21 0.36 0.05 0.28 -0.2 0.44 0.04 0.37 -0.17 0.26 0.01 0.38 -0.2c1.07,0.1 1.45,-0.26 2.38,-0.29 0,-0.25 -0.07,-0.19 0.2,-0.19l0.39 0.03c0,-0.32 -0.08,-0.23 0.25,-0.23l0.52 0.07 0.29 -0.22 0.39 0.06c0,-0.28 -0.06,-0.19 0.25,-0.19l0.49 0.03 0.32 -0.18 0.31 0.02 0.33 -0.22 0.31 0.06 0.34 -0.25c0.83,0.17 1.54,-0.22 2.36,-0.24 0,-0.31 -0.08,-0.24 0.22,-0.24 0.62,0.11 0.62,-0.06 1.23,-0.08 0,-0.26 -0.06,-0.19 0.22,-0.19l0.37 0.03c0,-0.34 -0.08,-0.24 0.27,-0.24l0.5 0.08 0.31 -0.22 0.38 0.06c0,-0.28 -0.06,-0.19 0.26,-0.19l0.41 0.03c0,-0.26 -0.06,-0.18 0.24,-0.18l0.48 0.01 0.32 -0.17 0.31 0.01 0.5 -0.18c0.92,0.05 1.36,-0.28 2.18,-0.3 0,-0.32 -0.08,-0.24 0.24,-0.24l0.6 0.08c0,-0.24 -0.06,-0.17 0.2,-0.17l0.41 0.01c0,-0.27 -0.06,-0.19 0.24,-0.19l0.44 0.03c0,-0.23 -0.05,-0.16 0.2,-0.16l0.49 0 0.32 -0.23 0.36 0.06 0.28 -0.19 0.43 0.03 0.38 -0.18 0.26 0.02 0.38 -0.21c1.07,0.12 1.44,-0.25 2.36,-0.27 0,-0.28 -0.06,-0.2 0.22,-0.2l0.39 0.04c0,-0.33 -0.07,-0.24 0.26,-0.24l0.5 0.08 0.3 -0.23 0.39 0.06c0,-0.28 -0.06,-0.19 0.26,-0.19l0.49 0.03 0.31 -0.18 0.31 0.02 0.34 -0.22 0.29 0.06 0.35 -0.25 0.37 0.09 0.44 -0.2c0.69,0.06 0.87,-0.12 1.56,-0.12 0,-0.32 -0.08,-0.25 0.21,-0.25 0.62,0.12 0.61,-0.06 1.22,-0.07 0,-0.28 -0.07,-0.2 0.23,-0.2l0.46 0.03 0.19 -0.16 0.49 0 0.31 -0.23 0.37 0.07 0.28 -0.19 0.48 0.03 0.32 -0.18 0.33 0.02 0.32 -0.18 0.8 -0.17c0.09,-0.33 0.12,-0.29 0.17,-0.67 -0.28,0 -0.18,0.05 -0.18,-0.27l0.01 -0.98c-0.26,-0.45 -0.19,-0.38 -0.16,-0.95 0,-1.85 -0.32,-3.1 -0.32,-4.77 -0.3,-0.18 -0.13,0.29 -0.29,-0.39l0.13 -1.2c-0.25,-0.2 -0.15,0.32 -0.23,-0.41l0.07 -1.04c-0.25,-0.2 -0.13,0.33 -0.22,-0.41l0.06 -1.03c-0.24,-0.21 -0.13,0.34 -0.22,-0.42l0.06 -1.1 -0.18 -0.52 0.01 -0.65 -0.19 -0.43 0.02 -0.37 0.01 -0.7 -0.18 -0.75c0.13,-2.12 -0.46,-4.3 -0.46,-6.39 -0.29,-0.17 -0.13,0.28 -0.28,-0.38l0.12 -1.14 -0.23 -0.47 0.07 -1.04c-0.24,-0.19 -0.13,0.32 -0.22,-0.41l0.06 -0.96 -0.26 -0.65 0.09 -0.79 -0.24 -0.66 0.08 -0.93 -0.17 -0.52 0.01 -0.88 -0.2 -0.57 0.04 -0.68 -0.2 -0.93c0.16,-1.68 -0.28,-3.15 -0.28,-4.79 -0.28,-0.16 -0.13,0.27 -0.28,-0.37l0.12 -1.15 -0.23 -0.46 0.06 -0.98 -0.21 -0.47 0.05 -0.97 -0.25 -0.64 0.09 -0.87c-0.03,-0.04 -0.07,-0.09 -0.09,-0.12 -0.02,-0.04 -0.05,-0.1 -0.07,-0.14 -0.08,-0.15 -0.05,-0.15 -0.08,-0.33l0.08 -0.93 -0.17 -0.52 0.01 -0.71 -0.21 -0.74 0.05 -0.74c-0.06,-0.1 -0.08,0 -0.18,-0.38 -0.08,-0.31 -0.03,-0.21 -0.02,-0.49 0.15,-1.56 -0.28,-3.2 -0.28,-4.79 -0.28,-0.16 -0.13,0.26 -0.27,-0.37l0.1 -1.15 -0.22 -0.46 0.06 -0.81 -0.24 -0.48 0.1 -0.8 -6.79 -0.2c-0.77,0.11 -1.1,0.18 -1.75,-0.12l-1.79 0.01 -2.04 -0.18 -1.67 0.1 -1.47 -0.26 -1.91 0.1 -1.09 -0.19c-0.02,-0.06 -0.08,-0.05 -0.12,-0.07l-2.18 0.09 -1.56 -0.25 -1.98 0.08 -1.15 -0.24c-0.79,0 -1.71,-0.11 -2.4,0.16 -0.56,-0.06 -0.71,-0.02 -1.16,-0.32 -0.79,0 -1.69,-0.1 -2.39,0.15 -0.23,-0.03 -0.39,-0.04 -0.63,-0.12 -0.52,-0.16 -0.15,-0.06 -0.34,-0.19 -0.84,0 -1.8,-0.11 -2.57,0.12 -1.02,-0.12 -0.3,-0.01 -0.59,-0.28 -2.39,0 -4.29,-0.16 -6.67,-0.16 -1.12,0 -2.05,-0.16 -3.38,-0.17 -1.54,-0.01 -1.87,0.38 -3.01,0.49z"/>
   <path class="fil1" d="M17.15 6.86l0.07 0.8 -0.01 0.85c0.38,0.74 0.28,1.57 0.31,2.46l0.1 0.94 -0.06 0.3 0.23 1.17 -0.07 0.93 0.21 0.95 -0.07 0.43 0.19 0.75 0 0.5 -0.02 0.41 0.2 0.69 -0.04 0.55 0.01 0.88 0.16 0.73 -0.01 0.73c0.42,0.84 0.34,1.48 0.34,2.64l-0.05 0.63c0.23,0.39 0.18,0.4 0.21,0.95l0 0.97 0.19 0.94 0.02 0.86 -0.07 0.26 0.22 1.19 -0.04 0.41 0.17 0.74 0.01 0.67 0 0.8 0.17 0.75 -0.04 0.78 0.18 0.85 0 0.74 0.17 0.62 -0.03 0.43 0.01 0.88 0.18 0.82 -0.04 0.43 0.21 0.92 -0.08 1.26c0.13,0.18 0.11,-0.03 0.19,0.47 0.05,0.33 0.01,0.43 0,0.72l0.21 0.9c0.05,0.91 0.11,1.5 0.17,2.44l0.16 1.07 -0.01 0.75 -0.02 0.85 0.17 0.8 -0.01 0.97 0.17 0.77 -0.03 0.61 0.21 0.95 -0.02 0.91 0.18 0.83 -0.02 0.8 0.12 0.42 0.03 0.61 0 0.74 0.2 0.96 -0.09 1c0.15,0.23 0.01,-0.21 0.16,0.33 0.01,0.05 0.04,0.23 0.05,0.3 0.04,0.27 0.05,0.56 0.06,0.84l-0.06 0.05c0.02,0.04 0.05,0.09 0.06,0.12l0.09 0.3c0.1,0.45 0.01,-0.23 0.01,0.38l-0.02 0.85 0.22 0.98 -0.05 0.54 0.22 1.25 0 0.72 -0.04 0.53 0.19 0.92 -0.05 0.74 0.19 0.9 -0.01 0.7 0.19 0.86 0 0.82 0.14 0.44 0.01 0.62 -0.02 0.95c0.1,0.21 0.09,0.3 0.13,0.37 0.26,0.53 -0.05,0.13 0.36,0.54l0.26 -0.1 0.35 -0.15 0.51 -0.04 0.23 0.04 0.46 -0.17 0.09 0.05 0.42 -0.17 0.32 -0.03 0.21 0.01 0.4 -0.17 0.24 0.01 0.32 -0.12 0.22 -0.04 0.2 0.03 0.27 -0.18 0.25 0.01 0.17 -0.03c0,-0.27 -0.05,-0.17 0.29,-0.13l0.3 -0.01 0.14 0.01 0.21 -0.22 0.32 0.06 0.24 0c0.14,-0.2 -0.28,-0.17 0.41,-0.17l0.23 0.02c0.14,-0.25 -0.23,-0.19 0.3,-0.21l0.43 0.01 0.08 0.05c0.23,-0.22 0.03,-0.18 0.56,-0.22l0.38 0.03 0.54 -0.22 0.4 0.03 0.4 -0.18 0.16 0.06 0.48 -0.21 0.3 0.03 0.39 -0.17 0.27 0.01 0.37 -0.16 0.46 0.01 0.36 -0.16 0.21 -0.02c0,-0.26 -0.05,-0.17 0.25,-0.15l0.32 -0.01 0.16 0.03 0.24 -0.21 0.33 0.05 0.2 0c0.21,-0.21 0.01,-0.17 0.53,-0.21l0.18 0.09c0.27,-0.27 -0.04,-0.18 0.62,-0.27l0.14 0.09 0.48 -0.23 0.29 0 0.32 -0.17 0.37 -0.01 0.28 0.04 0.46 -0.22 0.31 0.04 0.38 -0.16 0.33 0.03 0.37 -0.16 0.32 0 0.25 -0.18 0.27 0.02 0.2 -0.02 0.29 -0.13 0.29 -0.03 0.22 0.02 0.44 -0.17 0.16 0.06c0.16,-0.24 -0.12,-0.16 0.48,-0.22l0.48 -0.03 0.49 -0.16 0.06 0.05 0.56 -0.21 0.23 0.03 0.42 -0.17 0.32 -0.03 0.21 0.02 0.41 -0.18 0.23 0.01 0.32 -0.12 0.24 -0.04 0.28 0.01 0.35 -0.16 0.31 0 0.36 -0.16 0.44 0.02 0.39 -0.17 0.25 0 0.4 -0.16 0.23 0.01 0.3 -0.2 0.44 0 0.22 0.03c0.41,-0.25 0.73,-0.28 1.31,-0.36l0.42 -0.12 0.41 -0.06 0.16 0.06 0.48 -0.21 0.18 0.05 0.22 -0.2 0.29 0.02 0.27 0 0.36 -0.16 0.46 0.01 0.36 -0.16 0.21 -0.02 0.25 -0.14 0.32 -0.02 0.16 0.03 0.24 -0.2 0.33 0.04 0.21 0.01 0.35 -0.19 0.39 0.03 0.41 -0.2 0.37 0.03 0.42 -0.21 0.34 0.02 0.36 -0.15 0.29 -0.05 0.2 0.02 0.31 -0.14 0.28 -0.03 0.26 0.01 0.38 -0.16 0.19 0.03 0.22 -0.2 0.29 0.04 0.39 -0.02 0.36 -0.16 0.37 -0.16 -0.05 -0.8c-0.2,-0.2 -0.23,0.38 -0.15,-0.56l0.05 -0.55c-0.25,-0.27 0,0.28 -0.23,-0.35 -0.17,-0.48 -0.07,-0.16 -0.03,-0.49l0.04 -0.74c-0.11,-0.14 -0.12,-0.09 -0.2,-0.37 -0.11,-0.36 -0.05,-0.21 0,-0.46l-0.01 -0.96 0.1 -0.34c-0.03,-0.03 -0.06,-0.08 -0.07,-0.1l-0.18 -1.03 0.05 -0.42 -0.17 -0.59 -0.02 -0.6 0.03 -0.6 -0.19 -0.81 0.04 -0.52 -0.16 -0.53 -0.01 -0.46 0 -0.46 -0.18 -0.46 0.04 -0.44 -0.01 -0.72 -0.17 -0.54 0.01 -0.5 0.04 -0.58c-0.12,-0.15 -0.09,-0.05 -0.18,-0.34 -0.08,-0.29 -0.03,-0.24 -0.03,-0.52l0 -0.65c-0.03,-0.04 -0.07,-0.09 -0.09,-0.12 -0.01,-0.04 -0.04,-0.1 -0.06,-0.14 -0.13,-0.31 -0.04,-0.02 -0.03,-0.33l0.01 -0.94c-0.07,-0.1 -0.11,-0.06 -0.17,-0.35 -0.08,-0.36 -0.03,-0.22 0,-0.53l0.06 -0.39c-0.28,-0.26 -0.13,0.24 -0.3,-0.52 -0.07,-0.32 0.02,-0.3 0.04,-0.47l0.01 -0.86 0.1 -0.13c-0.18,-0.22 -0.11,0.04 -0.21,-0.47 -0.05,-0.31 -0.01,-0.42 0,-0.68 -0.23,0.32 -0.16,0.19 -0.33,0.34 0.15,0.64 0.23,1.8 0.3,2.45 0.09,0.9 0.18,1.58 0.18,2.46 0.27,0.2 0.13,-0.32 0.26,0.41l-0.09 1 0.24 0.45 -0.08 1.09 0.21 0.53 -0.05 1.07 0.15 0.38 0.01 1.07 0.16 0.38 0 0.83 0.21 0.62c-0.1,0.88 0.2,3.37 0.28,4.5l0.47 4.52 -0.15 0.15 -0.37 0.01c0,0.29 0.06,0.19 -0.28,0.19l-0.4 -0.02 -0.24 0.15 -0.46 0.01 -0.35 0.19c-1.08,-0.06 -2.6,0.58 -3.63,0.61 0,0.3 0.07,0.22 -0.24,0.22 -0.73,-0.09 -0.49,0.08 -1.17,0.1 0,0.29 0.06,0.2 -0.28,0.2l-0.42 -0.03 -0.22 0.14 -0.47 0.02 -0.34 0.22 -0.34 -0.06 -0.3 0.17c-1.06,-0.02 -1.94,0.45 -3.02,0.47 0,0.28 0.07,0.22 -0.21,0.22 -0.69,-0.08 -0.54,0.09 -1.2,0.11 0,0.27 0.06,0.18 -0.25,0.18l-0.45 -0.02 -0.19 0.14 -0.4 0.02c0,0.26 0.05,0.17 -0.25,0.17l-0.52 -0.01 -0.28 0.18 -0.39 -0.02 -0.26 0.15 -0.39 0.01 -0.41 0.18c-1.11,-0.04 -1.98,0.44 -3.01,0.47 0,0.25 0.06,0.17 -0.22,0.17l-0.38 -0.01c0,0.3 0.06,0.21 -0.26,0.21l-0.42 -0.05c0,0.26 0.06,0.18 -0.22,0.18l-0.54 -0.02 -0.27 0.18 -0.39 -0.02c0,0.25 0.05,0.16 -0.26,0.16l-0.44 0 -0.36 0.2c-1.08,-0.07 -2.52,0.58 -3.64,0.61 0,0.29 0.07,0.21 -0.23,0.21 -0.7,-0.07 -0.53,0.09 -1.19,0.11 0,0.27 0.06,0.18 -0.26,0.18l-0.4 -0.02c0,0.25 0.05,0.16 -0.24,0.16l-0.47 0 -0.18 0.13 -0.5 0.03 -0.31 0.19c-0.9,-0.04 -2.02,0.43 -3,0.46 0,0.29 0.08,0.22 -0.22,0.22 -0.67,-0.09 -0.55,0.08 -1.2,0.1 0,0.27 0.06,0.19 -0.25,0.19l-0.43 -0.03c0,0.23 0.05,0.16 -0.21,0.16l-0.42 0c0,0.26 0.06,0.18 -0.23,0.18l-0.51 -0.02 -0.29 0.2 -0.38 -0.03c0,0.26 0.05,0.16 -0.27,0.16l-0.46 0 -0.34 0.15c-0.67,0.01 -2.13,0.28 -2.58,0.51l-0.2 -0.34 0.04 -1.1 -0.2 -0.51 0.03 -1.09 -0.19 -0.52 0.03 -1.09 -0.2 -0.69 0.04 -0.8 -0.19 -0.81c0.07,-1.02 -0.04,-2.47 -0.15,-3.52 -0.11,-1.02 -0.3,-2.41 -0.3,-3.55l-0.28 -0.5 0.12 -1.24 -0.19 -0.38 0.03 -1.08 -0.26 -0.53 0.09 -1.38 -0.15 -0.39 -0.01 -0.85 -0.15 -0.45 0 -0.31 -0.01 -0.87 -0.21 -0.74 0.05 -0.98 -0.14 -0.8c-0.11,-1.88 -0.34,-3.54 -0.34,-5.41 -0.26,0 -0.19,0.06 -0.19,-0.23l0.03 -1.34 -0.25 -0.43 0.08 -1.16 -0.3 -0.61 0.14 -1.1 -0.2 -0.52 0.04 -1.09 -0.19 -0.52 0.03 -1 -0.19 -0.61 0.03 -0.99 -0.19 -0.62 0.03 -1.1 -0.16 -0.67c-0.03,-2.49 -0.49,-4.68 -0.49,-7.08l-0.21 -0.34 0.05 -1.4 -0.2 -0.37 0.04 -1.23 -0.18 -0.38 0.02 -1.22 -0.22 -0.55 0.06 -1.22 -0.16 -0.4 0 -0.83 -0.16 -0.45 0.01 -0.33 -0.01 -0.84 -0.23 -0.77 0.07 -1.01 -0.13 -0.76c-0.07,-0.89 -0.1,-1.74 -0.17,-2.44 -0.09,-0.79 -0.19,-1.88 -0.19,-2.56l7.92 0.3c2.57,0.29 5.57,-0.03 8.2,0.22 0.65,-0.04 1.16,-0.11 1.63,0.13l2.4 -0.06c0.21,0.01 0.44,0.01 0.65,0.06 0.4,0.08 0.34,0.12 0.42,0.16l2.47 -0.07 1.45 0.23 2.26 -0.06c0.17,0.02 0.32,0.02 0.49,0.06 0.38,0.08 0.35,0.12 0.43,0.16l2.79 -0.05c0.23,0.02 0.26,0.02 0.48,0.08 0.04,0.01 0.11,0.1 0.14,0.06 0.03,-0.04 0.09,0.05 0.13,0.07l2.95 -0.04 0.85 0.2c0.93,0 2,0.13 2.86,-0.11 0.17,0.02 0.32,0.03 0.49,0.08 0.64,0.18 0.13,0.03 0.39,0.19 0.68,0 1.35,0 2.03,0 0.93,0 1.12,0.16 1.93,0.16 0.13,1.62 0.48,3.56 0.48,5.25 0.27,0.18 0.12,-0.29 0.26,0.4l-0.1 1.04c0.26,0.19 0.11,-0.31 0.25,0.41l-0.09 1.18c0.24,0.21 0.13,-0.35 0.22,0.43l-0.06 1 0.21 0.45 -0.04 0.85 0.2 0.6 -0.04 0.84 0.21 0.61 -0.05 0.84 0.18 0.77c-0.07,1.33 0.23,2.65 0.3,3.87 0.07,1.34 0.32,2.56 0.32,3.85l0.29 0.5 -0.13 1.06 0.2 0.39 -0.03 1.05 0.18 0.4 -0.02 0.97 0.19 0.48 -0.03 1.02 0.19 0.43 -0.03 0.96 0.2 0.65 -0.04 0.83c0.24,0.29 0.25,-0.47 0.21,0.62l-0.05 0.79 0.17 -0.52 -0.04 -0.75 0.04 -0.46 -0.2 -0.85 0.04 -0.92 -0.19 -0.79 0.01 -0.63 -0.14 -0.41 -0.02 -0.44 0.04 -0.56 -0.22 -0.68 0.04 -0.44 -0.02 -0.81 -0.13 -0.53 0 -0.66c-0.03,-0.03 -0.07,-0.07 -0.08,-0.1 -0.02,-0.03 -0.05,-0.1 -0.06,-0.13 -0.12,-0.27 -0.04,0.04 -0.04,-0.36l0.04 -0.81c-0.24,-0.21 -0.04,0.37 -0.21,-0.41 -0.06,-0.26 -0.01,-0.27 -0.01,-0.49l-0.02 -0.86 0.04 -0.35c-0.02,-0.04 -0.05,-0.09 -0.06,-0.12l-0.11 -0.7 0.02 -0.47 -0.21 -0.55c-0.07,-0.36 -0.01,-0.27 -0.01,-0.51l0.04 -0.89 -0.19 -0.87 0 -0.85 -0.15 -0.61 0.02 -0.6 -0.17 -0.71 0.01 -1.04 -0.15 -0.6 -0.02 -0.99 -0.14 -0.6 0.02 -0.61c-0.28,-0.25 -0.2,-0.28 -0.19,-0.71l0 -0.77c-0.23,-0.19 -0.24,0.36 -0.18,-0.51l0 -0.89c-0.25,-0.37 -0.21,-0.18 -0.2,-0.73 0.04,-0.97 -0.12,-1.53 -0.16,-2.52l0.08 -0.44 -0.22 -1.03 0.02 -0.3 -0.14 -0.51 -0.09 -0.69 -5.76 -0.44 -2 0.04c-0.29,0.01 -0.4,0.04 -0.71,0 -0.5,-0.07 -0.33,-0.11 -0.42,-0.15l-2.31 0c-0.58,0.02 -1.01,0.06 -1.52,-0.18l-2.5 0.03 -1.76 -0.2 -1.36 0.03c-0.59,0.03 -1.33,0 -1.76,-0.19l-1.63 0.05c-0.61,0.03 -1.33,-0.01 -1.78,-0.2l-1.73 0.04c-0.66,0.04 -1.63,0 -2.11,-0.21l-1.29 0.07c-0.7,0.05 -1.75,0 -2.28,-0.22l-1.96 0.01 -5.18 -0.19c-0.26,-0.01 -0.62,0.01 -0.88,-0.02 -0.35,-0.04 0.05,0.01 -0.26,-0.05l-0.19 -0.08 -2.21 -0.02 -1.36 -0.14 -1.11 0.01 0.06 0.72z"/>
   <path class="fil1" d="M17.56 35.99c0.35,0 0.25,-0.08 0.25,0.29l-0.09 1.31c0.35,0 0.25,-0.07 0.25,0.3l-0.09 1.32c0.36,0 0.25,-0.08 0.25,0.29l-0.08 1.41c0.23,0.16 0.18,-0.27 0.19,0.36 -0.11,1.54 0.25,3.1 0.29,4.03 0.02,0.46 -0.03,0.99 0,1.45 0.15,1.88 0.48,3.24 0.48,5.26 0.36,0 0.29,-0.1 0.29,0.22 -0.19,0.61 -0.13,0.8 -0.13,1.45 0.27,0.13 0.17,-0.23 0.25,0.33l-0.09 1.28c0.38,-0.24 0.17,-0.33 0.15,-0.97l0.03 -0.88 -0.14 -0.51 -0.07 -1.07 0.06 -0.06 -0.18 -0.71 0.01 -0.98 -0.17 -0.64 -0.07 -1.1 0.13 -0.16 -0.13 -0.21c-0.04,-0.11 -0.11,-0.31 -0.12,-0.43 -0.06,-0.33 -0.04,-0.51 -0.03,-0.84l0.05 -0.72c-0.14,-0.18 -0.1,-0.05 -0.19,-0.39 -0.04,-0.18 0,-0.36 0,-0.53l0.08 -0.9c-0.19,-0.26 -0.08,0.17 -0.22,-0.49 -0.03,-0.13 -0.03,-0.45 -0.03,-0.59l0.01 -0.76 -0.14 -0.63 0.02 -0.9c-0.09,-0.15 -0.06,-0.03 -0.14,-0.37 -0.08,-0.3 -0.01,0.03 -0.02,-0.36l-0.01 -1.03 -0.18 -0.8 0.04 -0.83 -0.18 -0.84 -0.01 -1.02 -0.14 -0.65 0.03 -0.26 -0.21 0 0 1.33zm2.01 19.63l-0.07 1.34c0.27,-0.23 0.11,0.03 0.16,-0.38 0,-0.01 0,-0.49 -0.01,-0.5l0.03 -0.8 -0.11 0.34z"/>
   <path class="fil1" d="M13.66 7.75l-0.02 0.67c0.26,0.4 0.24,0.59 0.25,1.14l-0.09 0.6c0.27,0.42 0.3,0.74 0.27,1.33l-0.13 0.61c0.09,0.13 0.11,0.07 0.19,0.33 0.01,0.02 0.06,0.25 0.06,0.3 0.05,0.29 0.03,0.57 0.03,0.85l-0.05 0.72c0.13,0.17 0.1,0.06 0.18,0.39 0.04,0.19 0.01,0.36 0.01,0.54l-0.03 0.85c0.25,0.43 0.23,0.63 0.24,1.1l-0.05 0.79 0.14 0.64 -0.02 0.89 0.16 0.74 0.04 0.94 0.14 0.63 -0.01 1.2 0.19 0.83 -0.01 0.72 0.14 0.65 -0.04 1.06c0.12,0.2 0.03,-0.19 0.17,0.35 0.05,0.21 0.06,0.43 0.08,0.64l0.13 0 0 -1.35c-0.34,0 -0.24,0.08 -0.24,-0.27l0.08 -1.34c-0.33,0 -0.23,0.08 -0.23,-0.27l0.07 -1.35c-0.31,0 -0.22,0.07 -0.22,-0.26l0.05 -1.35c-0.31,0 -0.22,0.07 -0.22,-0.27l0.06 -1.36c-0.3,-0.19 -0.22,0.32 -0.24,-0.41 0.28,-1.37 -0.26,-3.18 -0.24,-4.67 0.02,-1.6 -0.32,-2.93 -0.32,-4.6 -0.3,0 -0.21,0.07 -0.21,-0.24l0.05 -1.45 -0.19 -0.32 0.12 -0.65 0.04 -0.13 -0.27 -0.02 -0.06 0.8z"/>
   <path class="fil2" d="M16.11 19.95c0.28,0.02 0.21,-0.06 0.22,0.21l-0.06 1.4 0.24 0.21 -0.08 1.49c0.23,0.09 0.18,-0.26 0.17,0.28 -0.02,1.37 0.16,2.02 0.16,3.36l0.21 0.83 -0.05 0.81 0.1 0.97c0.07,0.5 0.02,0.81 0.06,1.29 0.04,0.61 0.13,0.42 0.16,1.12 0.04,1 0.16,1.45 0.16,2.58 0.41,-0.24 0.33,0.43 0.32,-0.58l-0.2 -1.21 0.12 -0.35 -0.28 -1.56 0.09 -0.33 -0.21 -1.07 -0.01 -1.1c-0.22,-0.25 -0.05,0.06 -0.16,-0.41 -0.04,-0.19 -0.01,-0.13 0.01,-0.37l-0.02 -1.3 -0.14 -0.61 0.03 -0.91 -0.19 -0.79 0.02 -0.7c-0.19,-0.18 -0.04,0.05 -0.12,-0.34 -0.03,-0.15 0,-0.14 -0.01,-0.35l-0.05 -0.9 -0.12 -0.68 -0.03 -0.96 -0.18 -0.91 0.06 -0.52 -0.22 0 0 1.4z"/>
   <path class="fil1" d="M19.88 59c-0.17,1.09 0.08,1.75 0.1,2.74 0.02,0.76 0.11,0.69 0.16,1.29 0.03,0.46 -0.03,0.99 0,1.45 0.15,1.96 0.48,3.2 0.48,5.35l0.2 0.29 -0.03 1.31 0.18 0.3 -0.03 0.97c-0.44,-0.1 -0.54,-0.14 -1.12,-0.21 -0.09,0.21 -0.11,0.03 0,0.18l0.31 0.13 0.58 0.04c0.8,0.14 0.23,0.08 0.43,-0.14l-0.06 -0.39 0.02 -0.6 0.04 -0.6 -0.2 -0.88 0.03 -1.17c-0.03,-0.04 -0.06,-0.08 -0.07,-0.12 -0.23,-0.59 -0.15,-0.43 -0.14,-0.97l0.07 -0.55c-0.14,-0.21 -0.02,0.19 -0.19,-0.36 -0.01,-0.06 -0.05,-0.29 -0.06,-0.31 -0.04,-0.27 -0.02,-0.55 -0.02,-0.81l0.06 -0.58c-0.21,-0.24 -0.18,-0.5 -0.16,-0.82l0.01 -0.63c-0.17,-0.2 -0.13,-0.03 -0.22,-0.4 -0.08,-0.33 -0.02,-0.24 0.03,-0.54l0.04 -1.05c-0.22,-0.34 -0.04,0.35 -0.2,-0.49 -0.03,-0.21 0,-0.34 -0.01,-0.51l0.02 -1.18 -0.14 -0.55 0.01 -0.54 -0.12 0.35z"/>
   <path class="fil2" d="M15.47 28.16l0.31 2.75 -0.02 0.85c0.28,0.47 0.22,0.67 0.23,1.26l-0.06 0.96 0.19 0.82 -0.05 0.82 0.19 0.8 -0.02 0.7c0.14,0.22 0.04,-0.18 0.16,0.43 0.02,0.13 0.02,0.33 0.03,0.44l0.03 1.24 0.08 0.47 0.03 0.66 0.12 -0.22 0.07 -1.32c-0.35,0 -0.25,0.08 -0.25,-0.29l0.09 -1.45c-0.22,-0.12 -0.19,0.28 -0.16,-0.32l-0.65 -9.35c-0.38,0.29 -0.34,-0.51 -0.32,0.75z"/>
   <path class="fil2" d="M17.25 47.16l-0.01 0.49 0.23 1.32 -0.04 0.73c0.06,0.12 0.12,0.15 0.18,0.43 0.04,0.18 0,0.32 -0.01,0.47l-0.03 0.76c0.15,0.2 0.1,0.04 0.18,0.39 0.04,0.15 0,0.32 -0.01,0.47l0.02 1.01 0.09 0.52 0.03 1.03c0.24,0.23 0.16,0.07 0.11,0.6l0.03 1.06 0.18 -0.34 0.01 -1.26 -0.18 -0.35c0.04,-0.97 -0.05,-1.25 -0.13,-1.95 -0.09,-0.72 0.05,-1.43 -0.08,-2.18 -0.24,-1.31 -0.19,-2.76 -0.42,-4.01l-0.17 0 0.02 0.81zm0.92 10.04l0 0.87 0.2 -0.36 0 -1.32c-0.36,0.28 -0.24,0.25 -0.2,0.81zm0.17 1.76l-0.03 0.52 0.22 0 0 -1.48c-0.41,0.31 -0.24,0.39 -0.19,0.96z"/>
   <path class="fil3" d="M18.95 66.5l0.4 4.35 0 0.58c0.13,0.84 -0.02,1.43 0.68,1.43l0.1 -0.06 -0.31 -0.13c-0.11,-0.15 -0.09,0.03 0,-0.18 -0.06,-0.64 -0.09,-0.22 -0.15,-0.77 -0.03,-0.31 0.01,-0.63 -0.03,-0.94 -0.07,-0.66 -0.14,-1.04 -0.14,-1.95 -0.32,-0.42 -0.21,-0.19 -0.25,-0.8l0.08 -0.77c-0.06,-0.11 -0.18,-0.14 -0.2,-0.52 -0.03,-0.69 0.06,-0.39 0.2,-0.51 -0.17,-0.31 -0.11,-0.07 -0.16,-0.56l-0.25 0 0.03 0.83z"/>
   <path class="fil4" d="M14.98 7.02c0.02,0.78 0.16,1.18 0.16,2.17 0.29,0.43 0.22,0.37 0.24,0.98l-0.07 0.58c0.02,0.06 0.18,0.33 0.18,0.55 0.01,0.74 -0.01,0.32 -0.18,0.55 0.18,0.27 0.1,-0.05 0.16,0.47l0.25 0 -0.1 -1.02 -0.11 -2.45c-0.1,-0.17 -0.06,0.02 -0.13,-0.31 -0.02,-0.11 -0.04,-0.46 -0.06,-0.59l-0.01 -0.96 -0.24 0 -0.09 0.03z"/>
   <path class="fil5" d="M28.28 6.63c-0.8,-0.38 -4.04,-0.34 -5.18,-0.36l0 0.17 5.18 0.19z"/>
   <path class="fil5" d="M61.25 8.84l0.17 0c-0.05,-0.74 -0.1,-0.86 -0.81,-0.93 -0.5,-0.04 -1.31,-0.13 -1.78,-0.12 -0.94,0.02 -2.49,-0.16 -3.43,-0.08l5.76 0.44 0.09 0.69z"/>
   <path class="fil1" d="M16.91 43.07l-0.02 0.89 0.15 0.67 -0.03 0.25 0.23 0 0 -1.29c-0.28,0 -0.21,0.07 -0.21,-0.22l0.05 -1.25 -0.16 0.2 -0.01 0.75z"/>
   <path class="fil5" d="M61.67 13.64l0.21 0c-0.04,-0.73 0,-1.95 -0.37,-2.52 0.04,0.99 0.2,1.55 0.16,2.52z"/>
   <path class="fil5" d="M20.59 45.18l0.06 -0.18c-0.06,-0.94 -0.12,-1.53 -0.17,-2.44l-0.16 0c0.02,0.83 0.04,1.93 0.27,2.62z"/>
   <path class="fil3" d="M18.69 23.57c0,-1.16 0.08,-1.8 -0.34,-2.64 0.02,0.5 0.16,2.29 0.34,2.64z"/>
   <path class="fil6" d="M15.72 12.32l-0.05 0.48 0.17 0.07 -0.03 1.03 -0.03 0.45 0.23 0 -0.17 -1.48c0.13,-0.57 0.03,-1.12 -0.22,-1.57l0.1 1.02z"/>
   <path class="fil3" d="M17.36 10.97l0.16 0c-0.03,-0.89 0.07,-1.72 -0.31,-2.46 0.01,0.42 0.05,0.75 0.1,1.17 0.06,0.56 0.02,0.68 0.05,1.29z"/>
   <path class="fil5" d="M32.52 6.84c-0.46,-0.29 -1.61,-0.28 -2.28,-0.22 0.53,0.22 1.58,0.27 2.28,0.22z"/>
   <path class="fil4" d="M18.86 64.84l-0.04 0.6 0.22 0 0.13 -0.77c-0.11,-0.25 -0.12,-0.26 -0.16,-0.62l-0.2 0 0.05 0.79z"/>
   <path class="fil4" d="M15.63 15.07c0.06,0.26 0.05,0.22 0.16,0.41l0.22 0 0 -1.13 -0.23 0c0,0.02 -0.04,0.44 -0.04,0.47 -0.01,0.04 -0.05,0.15 -0.05,0.13 -0.01,-0.02 -0.04,0.08 -0.06,0.12z"/>
   <path class="fil5" d="M35.92 6.98c-0.46,-0.25 -1.48,-0.27 -2.11,-0.21 0.48,0.21 1.45,0.25 2.11,0.21z"/>
   <path class="fil4" d="M14.32 6.74l-0.29 0.04 -0.04 0.19 -0.04 0.13 0.82 -0.16c0.17,-0.25 -0.29,-0.21 0.41,-0.19l0.04 -0.2 -0.4 0.07 -0.19 -0.02 -0.31 0.14z"/>
   <path class="fil4" d="M17.01 45.97l0.23 0c0.03,-0.57 -0.05,-0.31 0.16,-0.62l-0.16 -0.47 -0.23 0 0 1.09z"/>
   <path class="fil4" d="M64.3 40.93l0 0.66c0.17,-0.15 0.1,-0.02 0.33,-0.34l0.02 -0.84 -0.18 0 -0.17 0.52z"/>
   <polygon class="fil4" points="18.71,63.06 18.66,63.65 18.88,63.65 19.01,63.05 18.85,62.5 18.7,62.5 "/>
   <path class="fil5" d="M15.78 30.91l-0.31 -2.75 -0.08 0c0.08,0.89 0.12,2.18 0.39,2.75z"/>
   <path class="fil6" d="M56.24 5.94c-0.42,-0.2 -1.14,-0.12 -1.75,-0.12 0.65,0.3 0.98,0.23 1.75,0.12z"/>
   <path class="fil4" d="M15.95 18.28c0.06,0.27 -0.09,0.16 0.16,0.27l0.22 0c-0.09,-0.57 0,-0.71 -0.28,-1.1l-0.1 0.83z"/>
   <path class="fil4" d="M18.46 61.77l0.23 0 0.16 -0.34c-0.06,-0.32 -0.04,-0.28 -0.16,-0.51l-0.19 0 -0.04 0.85z"/>
   <path class="fil6" d="M17.13 7.18l0.02 -0.32 -0.06 -0.72 1.11 -0.01c-0.1,-0.04 -0.21,-0.11 -0.48,-0.12 -0.05,-0.01 -0.25,0 -0.3,0 -0.28,0.04 -0.24,0.08 -0.33,0.13 -0.17,0.14 -0.16,-0.27 -0.14,0.49 0.01,0.39 0.07,0.39 0.18,0.55z"/>
   <path class="fil5" d="M14.22 13.58c0,-0.28 0.02,-0.56 -0.03,-0.85 0,-0.05 -0.05,-0.28 -0.06,-0.3 -0.08,-0.26 -0.1,-0.2 -0.19,-0.33 -0.01,0.32 -0.02,0.47 0.04,0.82 0.01,0.06 0.05,0.25 0.06,0.3 0.14,0.47 0.08,0.21 0.18,0.36z"/>
   <path class="fil5" d="M19.08 48.21c0.01,-0.31 0.02,-0.48 -0.04,-0.83 -0.01,-0.06 -0.04,-0.24 -0.06,-0.3 -0.16,-0.53 -0.04,-0.14 -0.18,-0.35 -0.01,0.33 -0.03,0.51 0.03,0.84 0.01,0.12 0.08,0.32 0.12,0.43l0.13 0.21z"/>
   <path class="fil4" d="M64.99 44.38l-0.02 -0.99 -0.24 0c-0.02,0.17 -0.11,0.15 -0.04,0.47 0.17,0.76 0.02,0.26 0.3,0.52z"/>
   <path class="fil5" d="M20.83 67.42c0.02,-1.22 -0.19,-1.29 -0.2,-1.38 -0.01,-0.06 -0.05,-0.07 -0.07,-0.1 0,0.26 -0.02,0.54 0.02,0.81 0.01,0.02 0.05,0.25 0.06,0.31 0.17,0.55 0.05,0.15 0.19,0.36z"/>
   <path class="fil4" d="M15.47 13.46c0.21,0.25 0.09,0.02 0.16,0.44l0.18 0 0.03 -1.03 -0.17 -0.07c0,0.1 -0.03,0.3 -0.05,0.4 -0.01,0.05 -0.06,0.16 -0.07,0.15 -0.01,-0.02 -0.05,0.07 -0.08,0.11z"/>
   <path class="fil6" d="M35.13 5.17c-0.2,-0.47 0.02,-0.23 -0.48,-0.34 0,0 -0.62,0.02 -0.68,0.02 0.45,0.3 0.6,0.26 1.16,0.32z"/>
   <path class="fil4" d="M15.79 16.67c0.06,0.26 0.04,0.22 0.16,0.39l0.21 0 -0.01 -0.79 -0.18 0 -0.18 0.4z"/>
   <path class="fil5" d="M39.43 7.14c-0.4,-0.22 -1.22,-0.23 -1.78,-0.2 0.45,0.19 1.17,0.23 1.78,0.2z"/>
   <polygon class="fil6" points="21.77,6.29 19.56,6.07 19.56,6.27 "/>
   <path class="fil6" d="M21.96 59.51c-0.01,-0.28 -0.02,-0.57 -0.06,-0.84 -0.01,-0.07 -0.04,-0.25 -0.05,-0.3 -0.15,-0.54 -0.01,-0.1 -0.16,-0.33 -0.05,0.48 -0.08,0.25 0.02,0.81l0.19 0.55c0.01,-0.02 0.04,0.07 0.06,0.11z"/>
   <path class="fil1" d="M16.75 40.96l-0.02 0.44 0 0.34 0.19 0 0 -1.3c-0.15,0.17 -0.17,-0.24 -0.17,0.52z"/>
   <path class="fil4" d="M20.71 72.84l0 0.24 0.59 0.01 -0.04 -0.78 -0.18 0 0.06 0.39c-0.2,0.22 0.37,0.28 -0.43,0.14z"/>
   <path class="fil3" d="M19.66 58.56c0,0.79 -0.06,0.23 0.22,0.44l0.12 -0.35 -0.21 -0.92c0,0.03 0.01,0.45 0.01,0.46 -0.04,0.32 -0.06,0.22 -0.14,0.37z"/>
   <path class="fil1" d="M15.47 13.46c0.03,-0.04 0.07,-0.13 0.08,-0.11 0.01,0.01 0.06,-0.1 0.07,-0.15 0.02,-0.1 0.05,-0.3 0.05,-0.4l0.05 -0.48 -0.25 0 0 1.14z"/>
   <path class="fil3" d="M35.31 7.27c-0.47,-0.24 -0.98,-0.17 -1.63,-0.13 0.42,0.2 1.03,0.13 1.63,0.13z"/>
   <path class="fil3" d="M14.07 11.49c0.03,-0.59 0,-0.91 -0.27,-1.33 0.01,0.24 0,0.4 0.04,0.66 0.01,0.06 0.04,0.25 0.05,0.31 0.18,0.61 0.01,0.08 0.18,0.36z"/>
   <path class="fil5" d="M42.22 5.42c-0.19,-0.36 0.19,-0.2 -0.63,-0.27 -0.2,-0.01 -0.69,0.02 -0.93,0.02l1.56 0.25z"/>
   <path class="fil3" d="M18.51 60.35l0.18 -0.58c0,-0.75 0.05,-0.34 -0.16,-0.29l-0.22 0 0.2 0.87z"/>
   <path class="fil5" d="M23.52 73.32l0 -0.23c-0.41,-0.41 -0.1,-0.01 -0.36,-0.54 -0.04,-0.07 -0.03,-0.16 -0.13,-0.37 0.01,0.16 -0.03,0.46 0.04,0.66 0.21,0.57 -0.11,0.12 0.45,0.48z"/>
   <path class="fil4" d="M66.76 61.76l0.01 -0.84 -0.27 0c-0.04,0.33 -0.14,0.01 0.03,0.49 0.23,0.63 -0.02,0.08 0.23,0.35z"/>
   <path class="fil5" d="M48.99 5.75c-0.19,-0.36 0.2,-0.21 -0.63,-0.28 -0.17,-0.01 -0.63,0.02 -0.84,0.02l1.47 0.26z"/>
   <polygon class="fil1" points="15.79,16.67 15.97,16.27 15.98,15.69 16.01,15.48 15.79,15.48 "/>
   <path class="fil3" d="M16.57 40.36l0 0.6 0.18 0c0,-0.76 0.02,-0.35 0.17,-0.52 0,-0.52 0.06,-0.17 -0.23,-0.3l-0.12 0.22z"/>
   <path class="fil6" d="M18.74 44.19c0.04,-0.47 0.07,-0.74 -0.25,-1.08 0,0.14 0,0.46 0.03,0.59 0.14,0.66 0.03,0.23 0.22,0.49z"/>
   <path class="fil6" d="M31.58 5c-0.24,-0.57 0.15,-0.14 -0.33,-0.29 -0.12,-0.04 -0.5,-0.02 -0.64,-0.02 0.19,0.13 -0.18,0.03 0.34,0.19 0.24,0.08 0.4,0.09 0.63,0.12z"/>
   <path class="fil5" d="M66.34 59.35l0.22 0c-0.02,-0.42 0.06,-0.76 -0.23,-0.96l0.01 0.96z"/>
   <path class="fil3" d="M23.1 6.44l0 -0.17 -1.33 0.02 0.19 0.08c0.31,0.06 -0.09,0.01 0.26,0.05 0.26,0.03 0.62,0.01 0.88,0.02z"/>
   <path class="fil1" d="M19.7 57.39l-0.04 1.17c0.08,-0.15 0.1,-0.05 0.14,-0.37 0,-0.01 -0.01,-0.43 -0.01,-0.46l0.06 -0.74c-0.21,0.18 -0.2,-0.31 -0.15,0.4z"/>
   <path class="fil3" d="M19.5 56.96c0,0.78 -0.05,0.22 0.2,0.43 -0.05,-0.71 -0.06,-0.22 0.15,-0.4l-0.2 -0.91c0.01,0.01 0.01,0.49 0.01,0.5 -0.05,0.41 0.11,0.15 -0.16,0.38z"/>
   <path class="fil4" d="M66.54 60.18l0.04 -0.27 -0.02 -0.56 -0.22 0c-0.05,0.25 -0.11,0.1 0,0.46 0.08,0.28 0.09,0.23 0.2,0.37z"/>
   <path class="fil5" d="M15.99 33.02c-0.01,-0.59 0.05,-0.79 -0.23,-1.26 -0.01,0.56 -0.02,0.87 0.23,1.26z"/>
   <path class="fil1" d="M19.33 67.26l0 -1.03c-0.14,0.12 -0.23,-0.18 -0.2,0.51 0.02,0.38 0.14,0.41 0.2,0.52z"/>
   <path class="fil6" d="M18.86 64.84l-0.05 -0.79 0.07 -0.4 -0.22 0c-0.01,0.61 -0.04,0.73 0.2,1.19z"/>
   <path class="fil6" d="M64.73 43.39l0.24 0c0.02,-0.31 0.1,-0.09 -0.03,-0.5 -0.08,-0.28 -0.09,-0.22 -0.2,-0.36l-0.01 0.86z"/>
   <path class="fil5" d="M19.02 49.47l0.18 0c-0.01,-0.16 -0.02,-0.48 -0.05,-0.63 -0.12,-0.56 -0.08,-0.3 -0.2,-0.47l0.07 1.1z"/>
   <path class="fil5" d="M52.7 5.83c-0.19,-0.24 0.03,-0.1 -0.34,-0.16 -0.13,-0.03 -0.47,-0.02 -0.63,-0.02 -0.35,0 -0.71,0 -1.07,0l2.04 0.18z"/>
   <path class="fil3" d="M63.54 30.08l-0.02 -0.9 -0.2 0c0,0.22 -0.05,0.23 0.01,0.49 0.17,0.78 -0.03,0.2 0.21,0.41z"/>
   <path class="fil3" d="M19.33 55.29c0,0.56 -0.06,0.2 0.24,0.33l0.11 -0.34 -0.2 -0.96c0.02,0.64 0.23,0.73 -0.15,0.97z"/>
   <path class="fil6" d="M19.37 52.93l0.21 0c-0.01,-0.13 -0.03,-0.37 -0.07,-0.54 -0.06,-0.23 -0.02,-0.09 -0.09,-0.28l-0.12 -0.25 0.07 1.07z"/>
   <path class="fil5" d="M45.61 5.59c-0.21,-0.4 0.22,-0.16 -0.48,-0.27 -0.05,-0.01 -0.65,0.01 -0.73,0.01 0.04,0.02 0.1,0.01 0.12,0.07l1.09 0.19z"/>
   <path class="fil3" d="M42.7 7.59l-1.45 -0.23c0.2,0.33 -0.09,0.19 0.64,0.25 0.18,0.01 0.59,-0.02 0.81,-0.02z"/>
   <path class="fil5" d="M13.66 7.75l0.06 -0.8 0.27 0.02 0.04 -0.19 -0.31 0.17c-0.36,0.16 -0.23,-0.17 -0.22,0.34 0.02,0.94 -0.05,0.06 0.16,0.46z"/>
   <polygon class="fil4" points="16.7,42.32 16.92,42.32 17.08,42.12 16.92,41.74 16.73,41.74 "/>
   <polygon class="fil6" points="61.87,15.26 62.13,15.26 61.91,14.14 61.87,14.37 "/>
   <polygon class="fil1" points="18.51,60.35 18.5,60.92 18.69,60.92 18.69,59.77 "/>
   <path class="fil1" d="M15.38 10.17c-0.02,-0.61 0.05,-0.55 -0.24,-0.98 0,0.03 -0.01,0.49 -0.01,0.5 0.1,0.46 -0.03,0.23 0.25,0.48z"/>
   <path class="fil5" d="M54.09 66.59c0.49,-0.06 0.96,-0.07 1.31,-0.36 -0.58,0.08 -0.9,0.11 -1.31,0.36z"/>
   <path class="fil1" d="M15.63 15.07c0.02,-0.04 0.05,-0.14 0.06,-0.12 0,0.02 0.04,-0.09 0.05,-0.13 0,-0.03 0.04,-0.45 0.04,-0.47l0.03 -0.45 -0.18 0 0 1.17z"/>
   <path class="fil5" d="M14.57 17.18c-0.01,-0.47 0.01,-0.67 -0.24,-1.1 0,0.46 -0.06,0.81 0.24,1.1z"/>
   <path class="fil3" d="M38.78 7.43c-0.08,-0.04 -0.02,-0.08 -0.42,-0.16 -0.21,-0.05 -0.44,-0.05 -0.65,-0.06 0.21,0.34 -0.08,0.12 0.33,0.2 0.16,0.04 0.57,0.02 0.74,0.02z"/>
   <path class="fil1" d="M15.31 11.85c0.17,-0.23 0.19,0.19 0.18,-0.55 0,-0.22 -0.16,-0.49 -0.18,-0.55l0 1.1z"/>
   <path class="fil5" d="M53.4 7.75c-0.35,-0.24 -0.63,-0.17 -1.13,-0.15 0.09,0.04 -0.08,0.08 0.42,0.15 0.31,0.04 0.42,0.01 0.71,0z"/>
   <path class="fil3" d="M20.47 63.91c-0.01,-0.5 0.06,-0.63 -0.19,-0.94 -0.05,0.3 -0.11,0.21 -0.03,0.54 0.09,0.37 0.05,0.2 0.22,0.4z"/>
   <polygon class="fil6" points="18.71,63.06 18.7,62.5 18.69,61.77 18.46,61.77 "/>
   <path class="fil5" d="M20.97 69.06c-0.01,-0.48 0.05,-0.78 -0.21,-1.09 -0.01,0.54 -0.09,0.38 0.14,0.97 0.01,0.04 0.04,0.08 0.07,0.12z"/>
   <polygon class="fil3" points="22.18,63.06 22.22,63.98 22.43,63.98 22.21,62.73 "/>
   <path class="fil6" d="M63.32 29.18l0.2 0c0,-0.22 0.06,-0.16 -0.03,-0.48 -0.19,-0.63 -0.02,-0.11 -0.19,-0.38l0.02 0.86z"/>
   <path class="fil6" d="M19.06 27.92l-0.02 -0.86 -0.2 0c-0.01,0.29 -0.07,0.16 0.03,0.5 0.09,0.29 0.08,0.21 0.19,0.36z"/>
   <polygon class="fil6" points="66.5,60.92 66.77,60.92 66.58,59.91 66.54,60.18 "/>
   <path class="fil1" d="M17.24 45.97l-0.01 0.38 0.17 0 0 -1c-0.21,0.31 -0.13,0.05 -0.16,0.62z"/>
   <path class="fil4" d="M56.96 8.23c-0.26,-0.16 0.25,-0.01 -0.39,-0.19 -0.17,-0.05 -0.32,-0.06 -0.49,-0.08 0.23,0.47 -0.12,0.14 0.34,0.25 0.14,0.04 0.41,0.02 0.54,0.02z"/>
   <path class="fil6" d="M20.24 41.94l0.03 -0.28c0.01,-0.29 0.05,-0.39 0,-0.72 -0.08,-0.5 -0.06,-0.29 -0.19,-0.47l0.16 1.47z"/>
   <path class="fil6" d="M28.04 4.81c0,-0.44 -0.02,-0.28 -0.59,-0.28 0.29,0.27 -0.43,0.16 0.59,0.28z"/>
   <polygon class="fil1" points="18.69,61.77 18.7,62.5 18.85,62.5 18.85,61.43 "/>
   <polygon class="fil3" points="19.56,6.27 19.56,6.07 18.2,6.13 "/>
   <path class="fil5" d="M20.32 61.92c0.01,-0.59 0.06,-0.57 -0.21,-1 0.01,0.17 -0.02,0.3 0.01,0.51 0.16,0.84 -0.02,0.15 0.2,0.49z"/>
   <path class="fil3" d="M18.67 25.15l0.18 0c-0.03,-0.55 0.02,-0.56 -0.21,-0.95l0.03 0.95z"/>
   <path class="fil4" d="M61.87 14.37l0.04 -0.23 -0.03 -0.5 -0.21 0c-0.01,0.55 -0.05,0.36 0.2,0.73z"/>
   <path class="fil5" d="M18.85 46.01c0.02,-0.34 0.07,-0.16 -0.02,-0.54 -0.11,-0.48 -0.07,-0.23 -0.17,-0.38 0,0.17 -0.04,0.35 0,0.53 0.09,0.34 0.05,0.21 0.19,0.39z"/>
   <polygon class="fil6" points="17.25,47.16 17.23,46.35 17.24,45.97 17.01,45.97 "/>
   <path class="fil5" d="M18.02 56.44l0.15 0.76c-0.04,-0.56 -0.16,-0.53 0.2,-0.81 0,-0.5 0.04,-0.17 -0.17,-0.29l-0.18 0.34z"/>
   <polygon class="fil4" points="20.63,46.07 20.81,46.07 20.65,45 20.59,45.18 "/>
   <path class="fil5" d="M38.68 5.25c-0.21,-0.37 0.19,-0.15 -0.48,-0.25 -0.06,-0.01 -0.57,0.01 -0.67,0.01l1.15 0.24z"/>
   <path class="fil5" d="M14.36 15.23c0,-0.18 0.03,-0.35 -0.01,-0.54 -0.08,-0.33 -0.05,-0.22 -0.18,-0.39 -0.02,0.34 -0.07,0.16 0.02,0.54 0.1,0.46 0.08,0.25 0.17,0.39z"/>
   <path class="fil5" d="M17.62 11.91l-0.1 -0.94 -0.16 0c0.01,0.05 0.04,0.42 0.06,0.49 0.13,0.51 0,0.18 0.2,0.45z"/>
   <path class="fil3" d="M63.19 26.68c-0.02,-0.44 0.04,-0.69 -0.22,-1.06 0,0.24 -0.06,0.15 0.01,0.51l0.21 0.55z"/>
   <path class="fil6" d="M11.76 9.28c0.22,-0.23 0.21,0.36 0.16,-0.41 -0.06,-0.89 0.06,-0.08 -0.16,-0.46l0 0.87z"/>
   <path class="fil4" d="M64.35 40.14c0.04,-1.09 0.03,-0.33 -0.21,-0.62 0,0.79 -0.06,0.47 0.21,0.62z"/>
   <path class="fil6" d="M68.81 63.34c0,-0.58 0.08,-0.59 -0.16,-0.95 -0.03,0.57 -0.1,0.5 0.16,0.95z"/>
   <path class="fil6" d="M18.85 26.12l0 -0.97 -0.18 0 0.07 0.77c0.01,0.03 0.05,0.08 0.05,0.1 0.01,0.02 0.04,0.07 0.06,0.1z"/>
   <path class="fil1" d="M19.5 68.83c0,-0.09 0.01,-0.39 -0.02,-0.47 -0.17,-0.46 0.14,-0.02 -0.23,-0.33 0.04,0.61 -0.07,0.38 0.25,0.8z"/>
   <path class="fil6" d="M63.98 15.87c0,-0.09 0.01,-0.44 -0.02,-0.53 -0.11,-0.42 0.06,-0.08 -0.18,-0.34 -0.01,0.28 -0.06,0.18 0.02,0.49 0.1,0.38 0.12,0.28 0.18,0.38z"/>
   <path class="fil6" d="M12.57 15.16c-0.18,-0.68 -0.14,-0.37 -0.33,-0.54 0,0.87 -0.09,0.39 0.33,0.54z"/>
   <path class="fil3" d="M65.1 45.65c0.01,-0.59 0.07,-0.44 -0.17,-0.88 -0.03,0.31 -0.08,0.17 0,0.53 0.06,0.29 0.1,0.25 0.17,0.35z"/>
   <path class="fil5" d="M66.43 58.05c0,-0.42 0.04,-0.89 -0.25,-1.13l0.18 1.03c0.01,0.02 0.04,0.07 0.07,0.1z"/>
   <path class="fil3" d="M45.88 7.75c-0.08,-0.04 -0.05,-0.08 -0.43,-0.16 -0.17,-0.04 -0.32,-0.04 -0.49,-0.06 0.21,0.34 -0.08,0.12 0.34,0.2 0.16,0.03 0.43,0.02 0.58,0.02z"/>
   <path class="fil5" d="M17.6 50.6c0.01,-0.15 0.05,-0.29 0.01,-0.47 -0.06,-0.28 -0.12,-0.31 -0.18,-0.43 -0.01,0.52 -0.07,0.56 0.17,0.9z"/>
   <path class="fil5" d="M15.46 27.6l0.04 -0.34c-0.02,-0.21 -0.03,-0.43 -0.08,-0.64 -0.14,-0.54 -0.05,-0.15 -0.17,-0.35l0.21 1.33z"/>
   <path class="fil4" d="M62.05 15.77l0.08 -0.51 -0.26 0c-0.06,0.87 -0.05,0.32 0.18,0.51z"/>
   <path class="fil6" d="M14.18 32.73c-0.17,-0.62 -0.14,-0.36 -0.32,-0.52 0,0.84 -0.1,0.36 0.32,0.52z"/>
   <path class="fil5" d="M18.17 58.07l0.17 0.89c-0.05,-0.57 -0.22,-0.65 0.19,-0.96l-0.16 -0.29 -0.2 0.36z"/>
   <path class="fil6" d="M14.33 34.34c-0.16,-0.6 -0.14,-0.37 -0.31,-0.54 0,0.87 -0.1,0.38 0.31,0.54z"/>
   <path class="fil3" d="M49.42 7.91c-0.04,-0.02 -0.1,-0.11 -0.13,-0.07 -0.03,0.04 -0.1,-0.05 -0.14,-0.06 -0.22,-0.06 -0.25,-0.06 -0.48,-0.08 0,0.35 0.33,0.21 0.75,0.21z"/>
   <path class="fil6" d="M22.43 64.7l0 -0.72 -0.21 0c0.01,0.34 -0.03,0.11 0.07,0.48 0,0.03 0.05,0.15 0.06,0.13 0.01,-0.03 0.06,0.07 0.08,0.11z"/>
   <path class="fil3" d="M45.94 7.45c-0.42,-0.2 -1.17,-0.22 -1.76,-0.2l1.76 0.2z"/>
   <polygon class="fil1" points="18.88,63.65 18.81,64.05 19.01,64.05 19.01,63.05 "/>
   <path class="fil5" d="M64.47 40.41l0.18 0c-0.04,-0.54 0.01,-0.4 -0.22,-0.75l0.04 0.75z"/>
   <path class="fil6" d="M14.5 36.12l-0.32 -0.75c0,1.13 -0.06,0.5 0.32,0.75z"/>
   <polygon class="fil1" points="15.95,18.28 16.05,17.45 16.16,17.06 15.95,17.06 "/>
   <path class="fil4" d="M17.4 34.5c0,0.35 -0.05,0.03 0.16,0.16l0.21 0 0.03 -0.74 -0.08 0c0.01,1.01 0.09,0.34 -0.32,0.58z"/>
   <path class="fil5" d="M17.47 48.97l-0.23 -1.32c0,0.53 -0.06,0.99 0.23,1.32z"/>
   <path class="fil5" d="M42.82 7.28l-1.76 -0.19c0.43,0.19 1.17,0.22 1.76,0.19z"/>
   <polygon class="fil5" points="20.71,73.08 20.71,72.84 20.13,72.8 20.03,72.86 "/>
   <path class="fil5" d="M20.8 46.82l0.01 -0.75 -0.18 0c0,0.39 -0.08,0.02 0.01,0.35 0.1,0.34 0.08,0.25 0.16,0.4z"/>
   <path class="fil6" d="M19.35 31.19l-0.01 -0.67 -0.21 0c0.02,0.42 -0.2,-0.35 0.03,0.29 0.14,0.38 0.1,0.24 0.19,0.38z"/>
   <path class="fil5" d="M49.96 7.6l-1.52 -0.18c0.51,0.24 0.94,0.2 1.52,0.18z"/>
   <path class="fil3" d="M63.68 31.48l0.05 -0.59 -0.23 0c0,0.4 -0.08,0.09 0.04,0.36 0.01,0.03 0.04,0.1 0.06,0.13 0.01,0.03 0.05,0.07 0.08,0.1z"/>
   <path class="fil5" d="M64.84 42.4l-0.21 -1.15c-0.01,0.26 -0.05,0.37 0,0.68 0.1,0.51 0.03,0.25 0.21,0.47z"/>
   <polygon class="fil6" points="65.09,46.59 65.3,46.59 65.1,45.65 "/>
   <path class="fil3" d="M13.89 9.56c-0.01,-0.55 0.01,-0.74 -0.25,-1.14l0.18 1.03c0.02,0.03 0.05,0.07 0.07,0.11z"/>
   <path class="fil5" d="M17.64 32.36c0,-0.29 -0.02,-0.46 -0.06,-0.76 -0.07,-0.53 -0.02,-0.46 -0.22,-0.8l0.28 1.56z"/>
   <path class="fil6" d="M12.37 13.39c0,-0.41 0.11,-0.32 -0.29,-0.32 0,0.41 -0.11,0.32 0.29,0.32z"/>
   <polygon class="fil6" points="19.18,51.09 19.37,51.09 19.19,50.11 "/>
   <polygon class="fil3" points="22.07,62.19 22.26,62.19 22.04,61.21 "/>
   <polygon class="fil1" points="19.04,65.44 18.92,65.67 19.17,65.67 19.17,64.67 "/>
   <path class="fil5" d="M19.21 29.37l-0.22 -1.19c-0.01,0.27 -0.05,0.38 0.01,0.69 0.1,0.49 0.11,0.34 0.21,0.5z"/>
   <polygon class="fil3" points="18.84,27.06 19.04,27.06 18.85,26.12 "/>
   <polygon class="fil6" points="63.5,30.89 63.73,30.89 63.54,30.08 "/>
   <path class="fil3" d="M17.79 13.38l-0.23 -1.17c0,0.23 -0.02,0.46 0.02,0.71 0.12,0.57 0.08,0.29 0.21,0.46z"/>
   <path class="fil3" d="M65.27 47.18l0.03 -0.59 -0.21 0c-0.01,0.31 -0.1,0.02 0.03,0.33 0.02,0.04 0.05,0.1 0.06,0.14 0.02,0.03 0.06,0.08 0.09,0.12z"/>
   <path class="fil5" d="M20.62 65.36c0.01,-0.42 0.03,-0.13 -0.03,-0.55 -0.01,-0.04 -0.05,-0.06 -0.06,-0.14 -0.01,-0.08 -0.05,-0.09 -0.07,-0.13 -0.02,0.32 -0.05,0.58 0.16,0.82z"/>
   <path class="fil6" d="M16.8 62.06l-0.2 -1.07c0,0.11 -0.02,0.53 -0.01,0.59 0.1,0.68 -0.03,0.23 0.21,0.48z"/>
   <polygon class="fil3" points="20.24,41.94 20.32,42.56 20.48,42.56 20.27,41.66 "/>
   <path class="fil3" d="M14.98 19.44c0,-0.67 0.08,-0.28 -0.24,-0.41 0.02,0.73 -0.06,0.22 0.24,0.41z"/>
   <path class="fil5" d="M64.46 20.1c0,-0.86 0.07,-0.43 -0.24,-0.59 0.03,0.18 0,0.18 0.08,0.33 0.02,0.04 0.05,0.1 0.07,0.14 0.02,0.03 0.06,0.08 0.09,0.12z"/>
   <path class="fil6" d="M68.33 57.62c0,-0.65 0.09,-0.26 -0.29,-0.39 0.16,0.68 -0.01,0.21 0.29,0.39z"/>
   <path class="fil5" d="M12.81 18.55c-0.03,-0.19 0,-0.16 -0.08,-0.32 -0.02,-0.04 -0.05,-0.1 -0.07,-0.13 -0.02,-0.03 -0.06,-0.08 -0.09,-0.11 0,0.85 -0.07,0.4 0.24,0.56z"/>
   <path class="fil4" d="M20.62 39.63c0,-0.92 0.09,-0.44 -0.3,-0.61l0.3 0.61z"/>
   <path class="fil3" d="M66.86 62.87c0.01,-0.63 0.05,-0.38 -0.15,-0.56 -0.08,0.94 -0.05,0.36 0.15,0.56z"/>
   <path class="fil6" d="M15.17 44.5l-0.19 -1.09c0,0.12 -0.02,0.52 0,0.61 0.09,0.62 0.03,0.26 0.19,0.48z"/>
   <polygon class="fil6" points="22.18,63.06 22.21,62.73 22.26,62.19 22.07,62.19 "/>
   <path class="fil1" d="M14.98 7.02l0.09 -0.03 0.11 -0.24c-0.7,-0.02 -0.24,-0.06 -0.41,0.19l0.21 0.08z"/>
   <path class="fil4" d="M65.04 46.91c-0.13,-0.73 0.01,-0.21 -0.26,-0.41 0,0.68 -0.07,0.29 0.26,0.41z"/>
   <path class="fil6" d="M66.72 41.81c0,-0.63 0.08,-0.25 -0.28,-0.38 0.15,0.66 -0.01,0.21 0.28,0.38z"/>
   <polygon class="fil5" points="16.91,43.07 16.92,42.32 16.7,42.32 "/>
   <path class="fil3" d="M18.13 39.5c0,-0.37 0.11,-0.29 -0.25,-0.29 0,0.37 -0.1,0.29 0.25,0.29z"/>
   <path class="fil5" d="M24.64 72.8l-0.51 0.04 0 0.19c0.58,-0.08 0.34,-0.04 0.51,-0.23z"/>
   <path class="fil4" d="M61.66 14.04c-0.14,-0.69 0.01,-0.22 -0.26,-0.4 0,0.65 -0.08,0.27 0.26,0.4z"/>
   <path class="fil3" d="M17.81 36.28c0,-0.37 0.1,-0.29 -0.25,-0.29 0,0.37 -0.1,0.29 0.25,0.29z"/>
   <path class="fil3" d="M17.97 37.89c0,-0.37 0.1,-0.3 -0.25,-0.3 0,0.38 -0.1,0.3 0.25,0.3z"/>
   <path class="fil6" d="M65.11 26.01c0,-0.62 0.08,-0.24 -0.28,-0.37 0.15,0.64 0,0.21 0.28,0.37z"/>
   <path class="fil4" d="M61.81 15.49c-0.14,-0.72 0.01,-0.22 -0.25,-0.41 0,0.67 -0.07,0.28 0.25,0.41z"/>
   <path class="fil5" d="M68.17 56.03c0,-0.68 0.07,-0.29 -0.23,-0.41 0.08,0.73 -0.02,0.21 0.23,0.41z"/>
   <polygon class="fil3" points="19.13,30.52 19.34,30.52 19.17,29.78 "/>
   <path class="fil5" d="M16.78 23.21l-0.13 -0.69c0.01,0.21 -0.02,0.2 0.01,0.35 0.08,0.39 -0.07,0.16 0.12,0.34zm-0.18 0.33c0.01,-0.54 0.06,-0.19 -0.17,-0.28 0,0.5 -0.04,0.16 0.17,0.28z"/>
   <path class="fil6" d="M15.78 50.3l-0.31 -0.51c0,0.83 -0.1,0.35 0.31,0.51z"/>
   <path class="fil3" d="M16.76 38.82c0,-0.37 0.1,-0.29 -0.25,-0.29 0,0.37 -0.1,0.29 0.25,0.29z"/>
   <path class="fil6" d="M15.94 51.91l-0.31 -0.52c0,0.84 -0.09,0.36 0.31,0.52z"/>
   <path class="fil3" d="M61.94 17.1c-0.09,-0.78 0.02,-0.22 -0.22,-0.43 0,0.7 -0.06,0.3 0.22,0.43z"/>
   <path class="fil5" d="M67.85 53.14c0,-0.69 0.06,-0.3 -0.22,-0.42 0.09,0.76 -0.02,0.21 0.22,0.42z"/>
   <path class="fil5" d="M68.01 54.58c0,-0.68 0.07,-0.29 -0.22,-0.41 0.09,0.74 -0.03,0.21 0.22,0.41z"/>
   <path class="fil6" d="M63.5 10.21c0,-0.61 0.07,-0.24 -0.27,-0.37 0.14,0.63 -0.01,0.21 0.27,0.37z"/>
   <path class="fil6" d="M65.59 31.73c0,-0.04 0.01,-0.45 0.01,-0.46 -0.12,-0.64 0.03,-0.22 -0.21,-0.47l0.2 0.93z"/>
   <path class="fil5" d="M64.62 21.61c0,-0.82 0.08,-0.47 -0.25,-0.64l0.25 0.64z"/>
   <path class="fil5" d="M66.24 37.41c0,-0.81 0.07,-0.47 -0.26,-0.65l0.26 0.65z"/>
   <path class="fil5" d="M18.21 54.84c0,-0.58 0.05,-0.23 -0.18,-0.35l0.18 0.35zm-0.22 0.54c0.05,-0.53 0.13,-0.37 -0.11,-0.6l0.11 0.6z"/>
   <path class="fil5" d="M61.59 10.68c0,-0.41 0.09,-0.52 -0.22,-1.03l0.22 1.03z"/>
   <path class="fil5" d="M66.4 38.78c0,-0.67 0.06,-0.28 -0.22,-0.41 0.09,0.73 -0.02,0.22 0.22,0.41z"/>
   <path class="fil5" d="M66.07 35.97c0,-0.79 0.09,-0.48 -0.24,-0.66l0.24 0.66z"/>
   <path class="fil6" d="M42.54 70.85c-0.35,0 -0.27,-0.1 -0.27,0.24 0.35,0 0.27,0.09 0.27,-0.24z"/>
   <path class="fil3" d="M15.63 25.91c0,-0.35 0.09,-0.27 -0.24,-0.27 0,0.35 -0.1,0.27 0.24,0.27z"/>
   <polygon class="fil4" points="18.03,18.04 18.23,18.04 18.03,17.35 "/>
   <path class="fil6" d="M17.54 69.48l-0.3 -0.5c0,0.81 -0.09,0.34 0.3,0.5z"/>
   <path class="fil4" d="M19.3 52.23c0,-0.32 0.07,-0.22 -0.29,-0.22 0,0.32 -0.07,0.22 0.29,0.22z"/>
   <path class="fil2" d="M15.46 27.6l-0.07 0.56 0.08 0c-0.02,-1.26 -0.06,-0.46 0.32,-0.75l-0.16 -0.15 -0.13 0 -0.04 0.34z"/>
   <polygon class="fil3" points="19.36,51.8 19.37,51.09 19.18,51.09 "/>
   <path class="fil6" d="M18.79 74.47c0,-0.33 0.08,-0.24 -0.26,-0.24 0,0.33 -0.08,0.24 0.26,0.24z"/>
   <path class="fil5" d="M17.93 15.26l-0.21 -0.95c0,0.46 -0.06,0.64 0.21,0.95z"/>
   <path class="fil3" d="M15.47 24.3c0,-0.35 0.09,-0.27 -0.23,-0.27 0,0.35 -0.1,0.27 0.23,0.27z"/>
   <polygon class="fil6" points="24,73 23.78,72.99 23.52,73.09 23.52,73.32 "/>
   <polygon class="fil3" points="17.87,16.44 18.05,16.44 17.86,15.69 "/>
   <path class="fil3" d="M67.33 50.02l0.19 0c0,-0.61 0.06,-0.24 -0.17,-0.37l-0.02 0.37z"/>
   <path class="fil5" d="M16.6 37.08l-0.16 -0.32c-0.03,0.6 -0.06,0.2 0.16,0.32zm-0.17 0.91c-0.01,-0.11 -0.01,-0.31 -0.03,-0.44 -0.12,-0.61 -0.02,-0.21 -0.16,-0.43l0.19 0.87z"/>
   <path class="fil5" d="M22.58 66.15l-0.19 -0.92c-0.01,0.49 -0.08,0.6 0.19,0.92z"/>
   <path class="fil4" d="M63.46 31.28l-0.29 -0.5c0,0.82 -0.08,0.34 0.29,0.5z"/>
   <path class="fil3" d="M53.22 8.07l-0.85 -0.2c0.21,0.3 -0.06,0.11 0.34,0.19 0.14,0.02 0.37,0.01 0.51,0.01z"/>
   <path class="fil5" d="M16.64 60.29l-0.21 -0.88c0,0.05 -0.01,0.41 0,0.41 0.08,0.41 0.03,0.25 0.21,0.47z"/>
   <path class="fil4" d="M22.4 58.7c0,-0.82 0.08,-0.35 -0.28,-0.5l0.28 0.5z"/>
   <path class="fil6" d="M56.89 67.79c-0.33,0 -0.26,-0.09 -0.26,0.24 0.34,0 0.26,0.08 0.26,-0.24z"/>
   <path class="fil6" d="M34.32 72.63c-0.33,0 -0.25,-0.09 -0.25,0.23 0.33,0 0.25,0.09 0.25,-0.23z"/>
   <path class="fil5" d="M15.02 42.72l-0.2 -0.71c0,0.65 -0.12,0.5 0.2,0.71z"/>
   <path class="fil4" d="M22.08 55.5c0,-0.84 0.07,-0.37 -0.26,-0.53l0.26 0.53z"/>
   <path class="fil5" d="M13.8 4.85c-0.34,0 -0.27,-0.09 -0.27,0.22 0.34,0 0.27,0.09 0.27,-0.22z"/>
   <polygon class="fil6" points="18.95,66.5 18.92,65.67 19.04,65.44 18.82,65.44 "/>
   <path class="fil3" d="M23.2 68.07c0,-0.65 0.12,-0.48 -0.2,-0.69l0.2 0.69z"/>
   <path class="fil3" d="M19.42 54.01c-0.08,-0.56 0.02,-0.2 -0.25,-0.33 0,0.56 -0.06,0.2 0.25,0.33z"/>
   <path class="fil1" d="M16.97 27.73l-0.21 -0.83c0,0.09 -0.01,0.41 0.01,0.5 0.13,0.43 -0.08,0.06 0.2,0.33z"/>
   <path class="fil5" d="M16.02 53.68l-0.23 -0.62c0,0.78 -0.06,0.45 0.23,0.62z"/>
   <polygon class="fil3" points="64.01,34.6 63.98,33.92 63.79,33.92 "/>
   <path class="fil3" d="M15.14 21.07c0,-0.34 0.1,-0.27 -0.22,-0.27 0,0.34 -0.09,0.27 0.22,0.27z"/>
   <path class="fil3" d="M15.31 22.68c0,-0.33 0.09,-0.26 -0.22,-0.26 0,0.33 -0.09,0.26 0.22,0.26z"/>
   <path class="fil5" d="M17.63 71.25l-0.23 -0.61c0,0.79 -0.06,0.44 0.23,0.61z"/>
   <path class="fil5" d="M18.24 41.27c-0.01,-0.63 0.04,-0.2 -0.19,-0.36 0,0.61 -0.06,0.24 0.19,0.36z"/>
   <path class="fil5" d="M16.18 55.29l-0.23 -0.62c0,0.75 -0.07,0.45 0.23,0.62z"/>
   <path class="fil5" d="M63.01 24.73c0.03,-0.53 0.06,-0.53 -0.19,-0.87l0.19 0.87z"/>
   <path class="fil5" d="M13.4 25.16l-0.19 -0.72c0,0.63 -0.12,0.49 0.19,0.72z"/>
   <path class="fil5" d="M14.57 37.73l-0.23 -0.56c0,0.84 -0.07,0.4 0.23,0.56z"/>
   <polygon class="fil6" points="66.06,55.91 66.26,55.91 66.04,55.31 "/>
   <path class="fil5" d="M17.74 52.22c0.01,-0.15 0.05,-0.32 0.01,-0.47 -0.08,-0.35 -0.03,-0.19 -0.18,-0.39l0.17 0.86z"/>
   <path class="fil6" d="M48.67 69.56c-0.32,0 -0.24,-0.08 -0.24,0.24 0.32,0 0.24,0.08 0.24,-0.24z"/>
   <path class="fil4" d="M18.21 14.16c0,-0.09 0.01,-0.36 -0.02,-0.44 -0.15,-0.44 0.11,-0.03 -0.21,-0.33l0.23 0.77z"/>
   <path class="fil5" d="M17.79 72.86l-0.23 -0.61c0,0.74 -0.06,0.44 0.23,0.61z"/>
   <path class="fil6" d="M20.2 74.8c0,-0.33 0.09,-0.25 -0.22,-0.25 0,0.32 -0.08,0.25 0.22,0.25z"/>
   <polygon class="fil3" points="66.23,56.5 66.26,55.91 66.06,55.91 "/>
   <path class="fil5" d="M14.73 39.34l-0.23 -0.56c0,0.82 -0.06,0.4 0.23,0.56z"/>
   <path class="fil4" d="M45.06 68.03c-0.33,0 -0.26,-0.09 -0.26,0.21 0.32,0 0.26,0.09 0.26,-0.21z"/>
   <path class="fil5" d="M22.72 67.79l-0.19 -0.9c0,0.28 -0.05,0.11 0.02,0.5 0.08,0.44 0.13,0.31 0.17,0.4z"/>
   <path class="fil5" d="M65.48 48.69l-0.21 -0.86c0,0.28 -0.05,0.23 0.03,0.52 0.09,0.29 0.06,0.19 0.18,0.34z"/>
   <path class="fil5" d="M16.34 56.91l-0.23 -0.56c0,0.83 -0.06,0.4 0.23,0.56z"/>
   <path class="fil3" d="M59.26 64.96c-0.34,0 -0.28,-0.09 -0.28,0.2 0.34,0 0.28,0.09 0.28,-0.2z"/>
   <path class="fil3" d="M66.03 63.51c-0.34,0 -0.28,-0.1 -0.28,0.19 0.34,0 0.28,0.1 0.28,-0.19z"/>
   <path class="fil3" d="M64.18 38.69l-0.2 -0.65c0,0.64 -0.11,0.45 0.2,0.65z"/>
   <path class="fil5" d="M13.12 21.77l-0.23 -0.74c0,0.09 -0.01,0.34 0.02,0.41 0.16,0.44 -0.12,0.03 0.21,0.33z"/>
   <polygon class="fil3" points="19.19,50.11 19.2,49.47 19.02,49.47 "/>
   <path class="fil5" d="M63.34 27.97c0,-0.58 0.09,0.04 -0.01,-0.39 -0.12,-0.51 -0.09,-0.3 -0.16,-0.43l0.11 0.7c0.01,0.03 0.04,0.08 0.06,0.12z"/>
   <path class="fil3" d="M62.42 21.45l-0.21 -0.61c0,1 -0.01,0.36 0.21,0.61z"/>
   <path class="fil5" d="M13.28 23.38l-0.23 -0.74c0,0.09 -0.01,0.34 0.02,0.41 0.16,0.44 -0.12,0.03 0.21,0.33z"/>
   <path class="fil6" d="M63.01 66.49c-0.29,0 -0.21,-0.07 -0.21,0.25 0.3,0 0.21,0.07 0.21,-0.25z"/>
   <path class="fil6" d="M48.71 67.68l-0.32 0.03 0 0.19c0.57,-0.07 0.18,0.01 0.32,-0.22z"/>
   <polygon class="fil6" points="18.19,18.59 18.23,18.04 18.03,18.04 "/>
   <path class="fil6" d="M26.1 74.4c-0.3,0 -0.22,-0.07 -0.22,0.23 0.3,0 0.22,0.08 0.22,-0.23z"/>
   <path class="fil6" d="M14.39 4.69c-0.29,0 -0.21,-0.07 -0.21,0.24 0.3,0 0.21,0.07 0.21,-0.24z"/>
   <polygon class="fil3" points="65.6,50.31 65.64,49.77 65.43,49.77 "/>
   <path class="fil4" d="M28.73 72.1l0 -0.19c-0.34,-0.04 -0.29,-0.14 -0.29,0.13l0.29 0.06z"/>
   <path class="fil5" d="M12.96 20.16l-0.23 -0.73c0,0.09 -0.01,0.33 0.01,0.4 0.17,0.44 -0.11,0.03 0.22,0.33z"/>
   <polygon class="fil5" points="21.08,72.31 21.26,72.31 21.1,71.71 "/>
   <path class="fil6" d="M26.16 72.52l-0.32 0.03 0 0.19c0.57,-0.07 0.16,0.01 0.32,-0.22z"/>
   <path class="fil6" d="M40.41 69.46l-0.29 0 0 0.19c0.62,-0.05 0.23,0.01 0.29,-0.19z"/>
   <path class="fil6" d="M40.45 71.33c-0.3,0 -0.22,-0.07 -0.22,0.24 0.3,0 0.22,0.07 0.22,-0.24z"/>
   <polygon class="fil5" points="15.97,16.27 16.15,16.27 15.98,15.69 "/>
   <path class="fil3" d="M18.69 18.78c0,-0.8 0.05,-0.4 -0.22,-0.55l0.22 0.55z"/>
   <path class="fil4" d="M60.67 64.64c-0.31,0 -0.24,-0.08 -0.24,0.22 0.31,0 0.24,0.08 0.24,-0.22z"/>
   <path class="fil3" d="M14.18 9.76c0,-0.31 0.08,-0.24 -0.21,-0.24 0,0.31 -0.09,0.24 0.21,0.24z"/>
   <path class="fil5" d="M43.99 70.58c-0.32,0 -0.26,-0.09 -0.26,0.19 0.32,0 0.26,0.09 0.26,-0.19z"/>
   <path class="fil3" d="M14.85 41.11l-0.19 -0.66c0,0.6 -0.11,0.45 0.19,0.66z"/>
   <path class="fil3" d="M65.8 54.33l-0.21 -0.62c0,0.97 0.01,0.38 0.21,0.62z"/>
   <polygon class="fil3" points="19.51,53.44 19.58,52.93 19.37,52.93 "/>
   <path class="fil4" d="M30.88 71.58l0 -0.19c-0.53,0.02 -0.16,-0.04 -0.3,0.21l0.3 -0.02z"/>
   <path class="fil3" d="M62.24 17.25l-0.19 -0.71c-0.01,0.43 -0.09,0.46 0.19,0.71z"/>
   <path class="fil4" d="M23.04 66.58c0,-0.1 0.01,-0.39 -0.01,-0.47 -0.11,-0.39 0.03,-0.11 -0.18,-0.34l0.19 0.81z"/>
   <path class="fil5" d="M58.34 67.51c-0.32,0 -0.26,-0.09 -0.26,0.19 0.32,0 0.26,0.09 0.26,-0.19z"/>
   <path class="fil4" d="M31.48 70.93c-0.29,0 -0.22,-0.07 -0.22,0.22 0.3,0 0.22,0.07 0.22,-0.22z"/>
   <path class="fil4" d="M38.26 69.48c-0.3,0 -0.23,-0.08 -0.23,0.21 0.3,0 0.23,0.08 0.23,-0.21z"/>
   <path class="fil3" d="M62.25 20l-0.2 -0.6c0,0.98 -0.01,0.35 0.2,0.6z"/>
   <path class="fil6" d="M68.98 64.59c0,-0.33 0.09,-0.27 -0.18,-0.27 0,0.32 -0.1,0.27 0.18,0.27z"/>
   <path class="fil5" d="M35.77 72.35c-0.31,0 -0.25,-0.09 -0.25,0.19 0.31,0 0.25,0.09 0.25,-0.19z"/>
   <path class="fil3" d="M65.32 49.98l-0.21 -0.53c0,0.8 -0.06,0.37 0.21,0.53z"/>
   <polygon class="fil5" points="23.05,71.23 23.04,70.61 22.87,70.61 "/>
   <path class="fil5" d="M19.52 32.74l-0.17 -0.75c-0.01,0.44 -0.08,0.48 0.17,0.75z"/>
   <polygon class="fil3" points="19.67,35.73 19.83,35.73 19.66,35.11 "/>
   <path class="fil5" d="M65.75 32.98c0,-0.75 0.05,-0.42 -0.2,-0.57l0.2 0.57z"/>
   <polygon class="fil6" points="65.43,49.77 65.64,49.77 65.44,49.27 "/>
   <path class="fil3" d="M36.84 69.8c-0.32,0 -0.26,-0.09 -0.26,0.18 0.32,0 0.26,0.09 0.26,-0.18z"/>
   <path class="fil5" d="M63.17 7.42c0,-0.84 0.06,-0.26 -0.24,-0.48l0.24 0.48z"/>
   <path class="fil5" d="M64.46 66.22c-0.3,0 -0.23,-0.08 -0.23,0.2 0.3,0 0.23,0.08 0.23,-0.2z"/>
   <path class="fil3" d="M52.46 66.42c-0.3,0 -0.25,-0.09 -0.25,0.18 0.31,0 0.25,0.09 0.25,-0.18z"/>
   <path class="fil3" d="M21.14 71.11c-0.01,-0.26 0.02,-0.2 -0.04,-0.5 -0.08,-0.44 -0.1,-0.28 -0.16,-0.38l0.2 0.88z"/>
   <path class="fil3" d="M30.06 71.25c-0.31,0 -0.25,-0.09 -0.25,0.19 0.31,0 0.25,0.08 0.25,-0.19z"/>
   <path class="fil5" d="M17.24 43.59c0,-0.29 0.08,-0.22 -0.21,-0.22 0,0.29 -0.07,0.22 0.21,0.22z"/>
   <path class="fil3" d="M21.59 50.72c0,-0.1 0.01,-0.34 -0.01,-0.41 -0.13,-0.39 0.01,-0.08 -0.2,-0.33l0.21 0.74z"/>
   <path class="fil4" d="M65.19 48.36l-0.24 -0.45c0,0.81 -0.06,0.24 0.24,0.45z"/>
   <path class="fil5" d="M17.45 30.47c0,-0.18 0.03,-0.25 -0.01,-0.49l-0.2 -0.58 0.21 1.07z"/>
   <polygon class="fil6" points="15.22,6.55 15.18,6.75 15.07,6.99 15.31,6.99 15.22,6.55 14.82,6.62 "/>
   <path class="fil3" d="M20.14 34.79c0,-0.92 -0.02,-0.39 -0.19,-0.61l0.19 0.61z"/>
   <path class="fil3" d="M27.34 71.9c-0.32,0 -0.27,-0.1 -0.27,0.16 0.32,0 0.27,0.1 0.27,-0.16z"/>
   <path class="fil5" d="M50.12 69.29c-0.3,0 -0.24,-0.08 -0.24,0.19 0.3,0 0.24,0.08 0.24,-0.19z"/>
   <path class="fil5" d="M64.14 17.35c0,-0.1 0.01,-0.33 -0.02,-0.41 -0.12,-0.39 0.02,-0.07 -0.19,-0.33l0.21 0.74z"/>
   <path class="fil5" d="M12.17 5.33c-0.31,0 -0.25,-0.08 -0.25,0.18 0.3,0 0.25,0.09 0.25,-0.18z"/>
   <path class="fil3" d="M19.98 33.19c0,-0.89 -0.03,-0.42 -0.19,-0.62l0.19 0.62z"/>
   <polygon class="fil3" points="65.92,53.38 65.94,52.85 65.76,52.85 "/>
   <path class="fil5" d="M17.23 28.3l-0.15 -0.78c-0.02,0.24 -0.05,0.18 -0.01,0.37 0.11,0.47 -0.06,0.16 0.16,0.41z"/>
   <path class="fil5" d="M66.56 40.29c0,-0.83 0.05,-0.25 -0.23,-0.47l0.23 0.47z"/>
   <path class="fil3" d="M20.46 37.92c0,-0.88 0.05,-0.31 -0.2,-0.52l0.2 0.52z"/>
   <path class="fil5" d="M56.24 67.99c-0.28,0 -0.22,-0.08 -0.22,0.2 0.29,0 0.22,0.07 0.22,-0.2z"/>
   <path class="fil4" d="M51.17 66.74c-0.3,0 -0.25,-0.09 -0.25,0.17 0.3,0 0.25,0.09 0.25,-0.17z"/>
   <polygon class="fil3" points="40.12,69.65 40.12,69.46 39.64,69.69 "/>
   <path class="fil3" d="M16.45 19.98l-0.18 -0.91 0.18 0.91zm-0.12 0.18c-0.01,-0.27 0.06,-0.19 -0.22,-0.21 0,0.28 -0.07,0.21 0.22,0.21z"/>
   <polygon class="fil5" points="17.72,33.92 17.8,33.92 17.52,32.71 "/>
   <polygon class="fil5" points="21.58,55.34 21.55,54.73 21.4,54.73 "/>
   <path class="fil4" d="M53.87 66.09c-0.28,0 -0.21,-0.06 -0.21,0.22 0.28,0 0.21,0.06 0.21,-0.22z"/>
   <path class="fil4" d="M36.92 70.3l0 -0.17c-0.3,-0.02 -0.25,-0.11 -0.25,0.15l0.25 0.02z"/>
   <path class="fil3" d="M62.55 23.06l-0.18 -0.77c0,0.1 -0.01,0.36 0.01,0.44 0.1,0.35 0.02,0.12 0.17,0.33z"/>
   <path class="fil4" d="M20.79 41.22c0,-0.78 0.05,-0.22 -0.25,-0.43l0.25 0.43z"/>
   <polygon class="fil6" points="18.05,16.94 18.05,16.44 17.87,16.44 "/>
   <path class="fil5" d="M11.77 7.59l-0.17 -0.79c0,0.1 -0.01,0.37 0.01,0.46 0.09,0.33 0.03,0.14 0.16,0.33z"/>
   <path class="fil5" d="M64.95 24.49c0,-0.82 0.05,-0.25 -0.23,-0.46l0.23 0.46z"/>
   <path class="fil5" d="M27.55 74.13c-0.28,0 -0.23,-0.08 -0.23,0.18 0.29,0 0.23,0.08 0.23,-0.18z"/>
   <path class="fil3" d="M42.96 68.51c-0.31,0 -0.26,-0.09 -0.26,0.16 0.31,0 0.26,0.09 0.26,-0.16z"/>
   <path class="fil3" d="M23.36 69.68c0,-0.86 0.03,-0.33 -0.19,-0.52l0.19 0.52z"/>
   <path class="fil3" d="M64.47 39.2c-0.02,-0.58 0.04,-0.44 -0.2,-0.85l0.2 0.85z"/>
   <path class="fil3" d="M23.53 71.28c0,-0.86 0.03,-0.31 -0.2,-0.51l0.2 0.51z"/>
   <path class="fil5" d="M41.9 71.06c-0.28,0 -0.22,-0.07 -0.22,0.19 0.28,0 0.22,0.08 0.22,-0.19z"/>
   <path class="fil5" d="M64.78 23.05c0,-0.84 0.06,-0.26 -0.21,-0.47l0.21 0.47z"/>
   <path class="fil5" d="M12.62 16.78l-0.22 -0.48c0,0.84 -0.05,0.26 0.22,0.48z"/>
   <path class="fil3" d="M20.3 36.31c0,-0.86 0.03,-0.31 -0.19,-0.52l0.19 0.52z"/>
   <path class="fil5" d="M44.64 70.43c-0.3,0 -0.24,-0.08 -0.24,0.18 0.29,0 0.24,0.08 0.24,-0.18z"/>
   <path class="fil4" d="M20.95 42.79c0,-0.29 0.07,-0.23 -0.19,-0.23 0,0.29 -0.07,0.23 0.19,0.23z"/>
   <path class="fil5" d="M67.36 48.95c0,-0.1 0.01,-0.34 -0.01,-0.42 -0.1,-0.35 -0.02,-0.11 -0.17,-0.33l0.18 0.75z"/>
   <path class="fil5" d="M63.33 8.69c0,-0.82 0.06,-0.24 -0.22,-0.46l0.22 0.46z"/>
   <path class="fil6" d="M19.48 74.63l-0.31 -0.31c0.13,0.4 -0.22,0.31 0.31,0.31z"/>
   <polygon class="fil4" points="61.39,9.35 61.42,8.84 61.25,8.84 "/>
   <path class="fil4" d="M28.75 71.57c-0.28,0 -0.23,-0.08 -0.23,0.18 0.29,0 0.23,0.08 0.23,-0.18z"/>
   <path class="fil3" d="M62.09 18.55l-0.21 -0.45c0,0.72 -0.06,0.32 0.21,0.45z"/>
   <path class="fil4" d="M44.38 68.19c-0.28,0 -0.22,-0.08 -0.22,0.18 0.28,0 0.22,0.08 0.22,-0.18z"/>
   <polygon class="fil4" points="55.82,66.32 55.82,66.11 55.4,66.23 "/>
   <path class="fil3" d="M36.18 69.96c-0.3,0 -0.24,-0.08 -0.24,0.16 0.29,0 0.24,0.09 0.24,-0.16z"/>
   <path class="fil4" d="M18.05 12.38c0,-0.46 0.08,-0.54 -0.13,-0.76l0.13 0.76z"/>
   <polygon class="fil6" points="56.23,66.05 55.82,66.11 55.82,66.32 "/>
   <polygon class="fil6" points="67.52,50.45 67.52,50.02 67.33,50.02 "/>
   <path class="fil6" d="M23.69 74.92l-0.49 0.2c0.84,0 0.28,0.04 0.49,-0.2z"/>
   <polygon class="fil6" points="65.76,52.85 65.94,52.85 65.75,52.39 "/>
   <path class="fil3" d="M45.66 67.87c-0.27,0 -0.22,-0.08 -0.22,0.17 0.28,0 0.22,0.08 0.22,-0.17z"/>
   <path class="fil5" d="M20.95 48.47l-0.17 -0.8c-0.01,0.56 -0.1,-0.09 0.01,0.37 0.14,0.6 0.07,0.26 0.16,0.43z"/>
   <path class="fil6" d="M28.27 72.07l-0.25 -0.01 0 0.16c0.3,0.01 0.25,0.1 0.25,-0.15z"/>
   <polygon class="fil3" points="25.84,72.74 25.84,72.55 25.42,72.72 "/>
   <path class="fil3" d="M39.5 69.6c-0.66,0.09 -0.35,0 -0.62,0.27l0.62 -0.27z"/>
   <path class="fil5" d="M33.68 72.83c-0.27,0 -0.2,-0.06 -0.2,0.19 0.26,0 0.2,0.07 0.2,-0.19z"/>
   <polygon class="fil3" points="62.67,64.81 62.67,64.62 62.25,64.83 "/>
   <polygon class="fil3" points="48.39,67.9 48.39,67.71 47.97,67.88 "/>
   <path class="fil3" d="M67.69 51.62c0,-0.83 0.01,-0.32 -0.18,-0.52l0.18 0.52z"/>
   <path class="fil5" d="M13.26 5.01c-0.27,0 -0.21,-0.07 -0.21,0.18 0.27,0 0.21,0.07 0.21,-0.18z"/>
   <polygon class="fil6" points="16.73,41.4 16.75,40.96 16.57,40.96 "/>
   <polygon class="fil4" points="65.75,51.93 65.75,51.47 65.57,51.47 "/>
   <polygon class="fil5" points="31.31,71.4 30.88,71.39 30.88,71.58 "/>
   <path class="fil3" d="M64.01 37.08l-0.19 -0.43c0,0.7 -0.06,0.3 0.19,0.43z"/>
   <path class="fil3" d="M63.85 35.63l-0.19 -0.48c0,0.83 -0.04,0.27 0.19,0.48z"/>
   <path class="fil6" d="M60.43 66.97l-0.35 0.25c0.6,0 0.23,0.07 0.35,-0.25z"/>
   <polygon class="fil5" points="53.87,66.56 53.43,66.56 53.43,66.74 "/>
   <polygon class="fil6" points="63.79,33.92 63.98,33.92 63.83,33.48 "/>
   <path class="fil6" d="M46.25 70.1l-0.5 0.18c0.84,0 0.3,0.03 0.5,-0.18z"/>
   <path class="fil6" d="M12.76 5.17l-0.22 0 0 0.17c0.28,0.01 0.22,0.09 0.22,-0.17z"/>
   <path class="fil3" d="M65.91 34.38c0,-0.81 0.01,-0.34 -0.17,-0.52l0.17 0.52z"/>
   <polygon class="fil5" points="65.57,51.47 65.75,51.47 65.61,51.03 "/>
   <path class="fil6" d="M20.13 59.74c0.04,-0.58 0.13,-0.27 -0.14,-0.55l0.14 0.55z"/>
   <path class="fil3" d="M64.3 18.58c0,-0.81 0.01,-0.33 -0.17,-0.52l0.17 0.52z"/>
   <path class="fil6" d="M37.87 71.81l-0.34 0.25c0.58,0 0.21,0.07 0.34,-0.25z"/>
   <polygon class="fil3" points="61.88,64.98 61.88,64.8 61.47,65 "/>
   <path class="fil6" d="M61.24 66.86l-0.44 0.2c0.79,0 0.23,0.05 0.44,-0.2z"/>
   <path class="fil3" d="M21.43 49c0,-0.11 0.01,-0.36 -0.01,-0.46 -0.11,-0.55 0,-0.11 -0.13,-0.34l0.14 0.8z"/>
   <path class="fil6" d="M53.66 68.46l-0.38 0.21c0.64,0 0.26,0.06 0.38,-0.21z"/>
   <path class="fil6" d="M15.51 8.85l-0.19 -0.9c0.02,0.13 0.04,0.48 0.06,0.59 0.07,0.33 0.03,0.14 0.13,0.31z"/>
   <path class="fil5" d="M28.2 73.98c-0.26,0 -0.21,-0.07 -0.21,0.17 0.26,0 0.21,0.07 0.21,-0.17z"/>
   <path class="fil3" d="M49.47 69.47c-0.26,0 -0.2,-0.07 -0.2,0.17 0.26,0 0.2,0.07 0.2,-0.17z"/>
   <path class="fil5" d="M21.11 50.21l-0.17 -0.77c0,0.6 -0.1,-0.11 0.01,0.37 0.11,0.42 0.09,0.28 0.16,0.4z"/>
   <path class="fil3" d="M29.38 71.41c-0.26,0 -0.21,-0.07 -0.21,0.16 0.26,0 0.21,0.07 0.21,-0.16z"/>
   <path class="fil5" d="M32.87 71.04l-0.54 0.22c0.53,-0.04 0.29,0.06 0.54,-0.22z"/>
   <path class="fil6" d="M31.1 73.31l-0.38 0.2c0.64,0 0.25,0.06 0.38,-0.2z"/>
   <polygon class="fil4" points="22.87,70.61 23.04,70.61 22.9,70.17 "/>
   <path class="fil5" d="M25.33 72.67l-0.46 0.17c0.73,-0.01 0.33,0.03 0.46,-0.17z"/>
   <polygon class="fil4" points="21.75,52.35 21.75,51.9 21.6,51.9 "/>
   <polygon class="fil6" points="19.8,36.16 19.83,35.73 19.67,35.73 "/>
   <path class="fil3" d="M63.68 34.18l-0.18 -0.4c0,0.65 -0.06,0.27 0.18,0.4z"/>
   <polygon class="fil6" points="61.47,65 61.08,64.97 61.08,65.15 "/>
   <polygon class="fil4" points="18.37,15.78 18.37,15.33 18.21,15.33 "/>
   <polygon class="fil5" points="63.99,35.6 64.15,35.6 63.97,35.16 "/>
   <path class="fil3" d="M63.53 32.73l-0.2 -0.39c0,0.65 -0.05,0.26 0.2,0.39z"/>
   <path class="fil3" d="M19.01 21.98c0,-0.62 0.06,-0.24 -0.2,-0.37l0.2 0.37z"/>
   <path class="fil5" d="M47.12 68.01l-0.49 0.16c0.74,0 0.34,0.01 0.49,-0.16z"/>
   <path class="fil5" d="M50.76 69.16c-0.25,0 -0.2,-0.07 -0.2,0.16 0.25,0 0.2,0.07 0.2,-0.16z"/>
   <path class="fil5" d="M59.79 67.16l-0.34 0.22c0.58,0 0.21,0.07 0.34,-0.22z"/>
   <path class="fil3" d="M57.87 65.29c-0.58,0 -0.21,-0.07 -0.34,0.22l0.34 -0.22z"/>
   <path class="fil4" d="M49.08 67.22c-0.67,0 -0.28,-0.05 -0.41,0.18l0.41 -0.18z"/>
   <path class="fil3" d="M46.15 68.2c-0.6,0.06 -0.32,-0.02 -0.48,0.22l0.48 -0.22z"/>
   <polygon class="fil6" points="62.25,64.83 61.88,64.8 61.88,64.98 "/>
   <path class="fil4" d="M19.17 23.72c0,-0.58 0.07,-0.21 -0.21,-0.34l0.21 0.34z"/>
   <path class="fil5" d="M17.29 67.87l-0.21 -0.35c0,0.59 -0.06,0.22 0.21,0.35z"/>
   <polygon class="fil5" points="41.1,69.28 40.73,69.29 40.73,69.47 "/>
   <path class="fil3" d="M31.95 71.23c-0.53,0.04 -0.33,0 -0.56,0.22l0.56 -0.22z"/>
   <path class="fil3" d="M22.06 60.36c0,-0.61 0.09,0.07 -0.01,-0.38l-0.09 -0.3c-0.01,-0.03 -0.04,-0.08 -0.06,-0.12l0.16 0.8z"/>
   <polygon class="fil6" points="63.01,64.64 62.67,64.62 62.67,64.81 "/>
   <polygon class="fil4" points="21.4,54.73 21.55,54.73 21.43,54.31 "/>
   <path class="fil3" d="M42.26 68.67c-0.61,0 -0.24,-0.06 -0.36,0.2l0.36 -0.2z"/>
   <path class="fil3" d="M16.45 58.68l-0.18 -0.65c0,0.09 0,0.27 0.01,0.32 0.11,0.33 0.03,0.13 0.17,0.33z"/>
   <path class="fil3" d="M18.85 20.38c0,-0.63 0.06,-0.25 -0.18,-0.38l0.18 0.38z"/>
   <path class="fil6" d="M33.67 70.89l-0.4 0.18c0.6,-0.01 0.29,0.05 0.4,-0.18z"/>
   <path class="fil5" d="M53.02 68.65l-0.38 0.18c0.63,0 0.25,0.06 0.38,-0.18z"/>
   <path class="fil5" d="M65.91 65.86l-0.31 0.23c0.54,0 0.19,0.07 0.31,-0.23z"/>
   <path class="fil5" d="M51.57 68.93l-0.32 0.23c0.55,0 0.19,0.06 0.32,-0.23z"/>
   <path class="fil3" d="M22.24 56.96c0,-0.63 0.05,-0.25 -0.19,-0.38l0.19 0.38z"/>
   <path class="fil5" d="M37.22 72l-0.33 0.22c0.57,0 0.21,0.06 0.33,-0.22z"/>
   <polygon class="fil3" points="61.08,65.15 61.08,64.97 60.73,65.16 "/>
   <path class="fil3" d="M30.35 71.58c-0.69,0 -0.27,-0.03 -0.41,0.17l0.41 -0.17z"/>
   <path class="fil3" d="M23.69 72.72c0,-0.58 0.05,-0.22 -0.2,-0.34l0.2 0.34z"/>
   <path class="fil3" d="M38.7 69.78c-0.52,0.04 -0.32,0 -0.53,0.21l0.53 -0.21z"/>
   <polygon class="fil3" points="64.13,36.01 64.15,35.6 63.99,35.6 "/>
   <path class="fil5" d="M57.69 67.64l-0.3 0.23c0.53,0 0.18,0.06 0.3,-0.23z"/>
   <polygon class="fil4" points="24,73 24.13,73.03 24.13,72.84 23.78,72.99 "/>
   <path class="fil5" d="M18.38 40.82l-0.16 -0.73c0.01,0.39 -0.06,0.06 0.02,0.36 0.08,0.34 0.05,0.22 0.14,0.37z"/>
   <path class="fil5" d="M17.04 44.63l-0.15 -0.67c-0.02,0.52 -0.12,-0.07 0.02,0.38 0.01,0.05 0.04,0.11 0.05,0.16 0.02,0.04 0.05,0.09 0.08,0.13z"/>
   <path class="fil3" d="M64.65 63.84c-0.59,0 -0.22,-0.06 -0.35,0.19l0.35 -0.19z"/>
   <path class="fil5" d="M43.35 70.71l-0.31 0.22c0.54,0 0.18,0.06 0.31,-0.22z"/>
   <path class="fil5" d="M29.01 73.78l-0.32 0.21c0.55,0 0.19,0.06 0.32,-0.21z"/>
   <path class="fil3" d="M19.82 31.47c0,-0.09 0,-0.28 -0.01,-0.33 -0.08,-0.3 -0.05,-0.18 -0.15,-0.34l0.16 0.67z"/>
   <polygon class="fil3" points="64.17,64.51 64.17,64.32 63.86,64.46 "/>
   <polygon class="fil3" points="63.37,64.65 63.37,64.49 63.01,64.64 "/>
   <polygon class="fil6" points="29.03,71.9 28.73,71.91 28.73,72.1 "/>
   <polygon class="fil5" points="37.97,69.99 37.64,69.94 37.64,70.12 "/>
   <polygon class="fil3" points="27.33,72.43 27.33,72.25 27.01,72.37 "/>
   <polygon class="fil5" points="60.52,65.15 60.19,65.11 60.19,65.28 "/>
   <polygon class="fil4" points="40.73,69.47 40.73,69.29 40.41,69.46 "/>
   <path class="fil5" d="M30.46 73.5l-0.37 0.17c0.61,0 0.24,0.05 0.37,-0.17z"/>
   <polygon class="fil5" points="29.7,71.75 29.38,71.69 29.38,71.87 "/>
   <path class="fil5" d="M18.53 17.01c0,-0.64 0.04,-0.27 -0.16,-0.4l0.16 0.4z"/>
   <polygon class="fil3" points="49.88,67.59 49.88,67.41 49.56,67.53 "/>
   <path class="fil5" d="M35.13 72.48l-0.29 0.22c0.51,0 0.17,0.06 0.29,-0.22z"/>
   <path class="fil3" d="M14.02 8.07c0,-0.55 0.05,-0.2 -0.19,-0.32l0.19 0.32z"/>
   <path class="fil5" d="M65.59 52.88l-0.16 -0.38c0,0.62 -0.05,0.25 0.16,0.38z"/>
   <polygon class="fil3" points="44.56,68.73 44.56,68.54 44.27,68.67 "/>
   <polygon class="fil5" points="37.24,70.12 36.92,70.13 36.92,70.3 "/>
   <path class="fil3" d="M67.36 65.59l-0.32 0.18c0.56,0 0.2,0.05 0.32,-0.18z"/>
   <polygon class="fil6" points="44.85,68.51 44.56,68.54 44.56,68.73 "/>
   <path class="fil5" d="M68.01 65.43l-0.32 0.18c0.55,0 0.19,0.05 0.32,-0.18z"/>
   <path class="fil5" d="M26.91 74.25l-0.27 0.22c0.48,0 0.15,0.06 0.27,-0.22z"/>
   <polygon class="fil4" points="53.43,66.74 53.43,66.56 53.13,66.76 "/>
   <path class="fil3" d="M34.79 70.28c-0.53,0 -0.18,-0.05 -0.31,0.19l0.31 -0.19z"/>
   <path class="fil3" d="M16.6 21.62l-0.12 -0.68 0.12 0.68zm-0.09 0.15l-0.24 -0.21c0,0.29 -0.07,0.21 0.24,0.21z"/>
   <polygon class="fil6" points="64.45,64.29 64.17,64.32 64.17,64.51 "/>
   <path class="fil3" d="M28.01 71.73c-0.51,0 -0.17,-0.05 -0.29,0.2l0.29 -0.2z"/>
   <polygon class="fil5" points="18.21,15.33 18.37,15.33 18.22,15 "/>
   <path class="fil3" d="M59.14 67.36l-0.31 0.18c0.53,0 0.19,0.05 0.31,-0.18z"/>
   <path class="fil3" d="M36.58 72.2l-0.32 0.18c0.54,0 0.2,0.05 0.32,-0.18z"/>
   <path class="fil5" d="M45.44 70.27l-0.32 0.17c0.55,0 0.2,0.05 0.32,-0.17z"/>
   <path class="fil3" d="M20.82 70.12l-0.2 -0.29c0,0.51 -0.05,0.17 0.2,0.29z"/>
   <polygon class="fil5" points="59.79,65.28 59.47,65.3 59.47,65.46 "/>
   <polygon class="fil5" points="63.66,64.44 63.37,64.49 63.37,64.65 "/>
   <polygon class="fil5" points="21.6,51.9 21.75,51.9 21.6,51.59 "/>
   <path class="fil3" d="M20.97 71.73l-0.18 -0.3c0,0.53 -0.05,0.18 0.18,0.3z"/>
   <path class="fil5" d="M29.65 73.63l-0.28 0.2c0.5,0 0.16,0.05 0.28,-0.2z"/>
   <path class="fil5" d="M52.21 68.8l-0.28 0.19c0.5,0 0.16,0.06 0.28,-0.19z"/>
   <polygon class="fil5" points="65.79,64.01 65.5,63.97 65.5,64.13 "/>
   <path class="fil3" d="M50.4 66.9c-0.5,0 -0.16,-0.05 -0.28,0.18l0.28 -0.18z"/>
   <path class="fil5" d="M66.56 65.74l-0.28 0.19c0.49,0 0.15,0.05 0.28,-0.19z"/>
   <polygon class="fil5" points="57.56,65.77 57.27,65.75 57.27,65.91 "/>
   <path class="fil3" d="M57.19 65.45c-0.52,0 -0.18,-0.05 -0.3,0.17l0.3 -0.17z"/>
   <polygon class="fil4" points="37.64,70.12 37.64,69.94 37.4,70.15 "/>
   <polygon class="fil6" points="50.12,67.37 49.88,67.41 49.88,67.59 "/>
   <polygon class="fil3" points="28.02,72.22 28.02,72.06 27.75,72.24 "/>
   <polygon class="fil4" points="60.19,65.28 60.19,65.11 59.95,65.31 "/>
   <path class="fil3" d="M43.62 68.35c-0.47,0 -0.15,-0.05 -0.27,0.18l0.27 -0.18z"/>
   <polygon class="fil4" points="59.47,65.46 59.47,65.3 59.22,65.44 "/>
   <polygon class="fil6" points="44.07,68.69 43.8,68.67 43.8,68.83 "/>
   <polygon class="fil6" points="27.55,72.21 27.33,72.25 27.33,72.43 "/>
   <polygon class="fil3" points="43.8,68.83 43.8,68.67 43.55,68.85 "/>
   <polygon class="fil3" points="17.13,7.18 17.22,7.66 17.15,6.86 "/>
   <polygon class="fil4" points="29.38,71.87 29.38,71.69 29.17,71.91 "/>
   <polygon class="fil4" points="65.5,64.13 65.5,63.97 65.28,64.17 "/>
   <polygon class="fil3" points="57.27,65.91 57.27,65.75 57.05,65.95 "/>
   <polygon class="fil3" points="12.54,5.34 12.54,5.17 12.4,5.33 "/>
   <polygon class="fil5" points="59.01,65.46 58.65,65.62 "/>
   <polygon class="fil5" points="63.81,32.67 63.68,32.14 "/>
   <polygon class="fil3" points="58.19,65.61 57.83,65.77 "/>
   <polygon class="fil5" points="19.35,71.43 19.35,70.85 "/>
   <polygon class="fil5" points="65.42,51.43 65.27,51.05 "/>
   <polygon class="fil1" points="17.02,29.51 16.92,28.54 "/>
   <polygon class="fil5" points="56.87,65.9 56.39,66.11 "/>
   <polygon class="fil6" points="17.06,26.22 16.92,25.61 "/>
   <polygon class="fil3" points="15.29,25.21 15.15,24.56 "/>
   <polygon class="fil5" points="65.11,66.09 64.92,66.25 "/>
   <polygon class="fil5" points="64.31,37.43 64.12,36.64 "/>
   <polygon class="fil5" points="19.99,37.86 19.81,37.04 "/>
   <polygon class="fil5" points="66.07,54.71 65.88,53.9 "/>
   <polygon class="fil3" points="51.76,66.58 51.57,66.72 "/>
   <polygon class="fil5" points="15.16,23.84 14.97,23.01 "/>
   <polygon class="fil5" points="18.5,42.35 18.36,41.72 "/>
   <polygon class="fil3" points="52.9,66.75 52.5,66.91 "/>
   <polygon class="fil3" points="21.45,53.51 21.27,52.68 "/>
   <polygon class="fil5" points="52.25,66.91 51.86,67.08 "/>
   <polygon class="fil3" points="49.73,67.06 49.47,67.21 "/>
   <polygon class="fil3" points="51.42,67.06 51.06,67.22 "/>
   <polygon class="fil5" points="21.91,53.59 21.76,53.2 "/>
   <polygon class="fil5" points="62.82,23.01 62.67,22.4 "/>
   <polygon class="fil5" points="50.75,67.22 50.4,67.38 "/>
   <polygon class="fil3" points="47.74,67.85 47.18,68.06 "/>
   <polygon class="fil4" points="20.16,39.21 19.95,38.29 "/>
   <polygon class="fil3" points="26.61,72.06 26.27,72.21 "/>
   <polygon class="fil3" points="22.9,69.35 22.71,68.49 "/>
   <polygon class="fil5" points="41.84,69.1 41.38,69.32 "/>
   <polygon class="fil5" points="43.23,68.85 42.86,69.01 "/>
   <polygon class="fil5" points="17.88,35.57 17.74,34.92 "/>
   <polygon class="fil6" points="16.12,34.8 15.93,33.98 "/>
   <polygon class="fil3" points="21.78,57.04 21.58,56.08 "/>
   <polygon class="fil3" points="14.98,21.81 14.84,21.18 "/>
   <polygon class="fil5" points="26.77,72.36 26.37,72.53 "/>
   <polygon class="fil3" points="62.69,21.8 62.52,21.09 "/>
   <polygon class="fil3" points="35.47,70.12 35.29,70.25 "/>
   <polygon class="fil6" points="16.54,39.7 16.46,39.23 "/>
   <polygon class="fil5" points="19.66,34.37 19.48,33.52 "/>
   <polygon class="fil5" points="42.53,68.98 42.15,69.14 "/>
   <polygon class="fil5" points="66.54,63.83 66.18,63.99 "/>
   <polygon class="fil5" points="18.36,20.2 18.2,19.47 "/>
   <polygon class="fil5" points="36.46,70.3 36.1,70.46 "/>
   <polygon class="fil5" points="14.8,20.24 14.64,19.5 "/>
   <polygon class="fil5" points="62.53,20.05 62.38,19.45 "/>
   <polygon class="fil5" points="65.09,64.14 64.71,64.3 "/>
   <polygon class="fil5" points="62.36,18.46 62.22,17.86 "/>
   <polygon class="fil5" points="14.63,6.6 14.32,6.74 "/>
   <polygon class="fil5" points="14.66,18.61 14.52,17.97 "/>
   <polygon class="fil5" points="49.33,67.52 48.92,67.7 "/>
   <polygon class="fil5" points="66.55,63.35 66.4,63.5 "/>
   <polygon class="fil5" points="17.85,53.75 17.76,53.23 "/>
   <polygon class="fil3" points="35.64,70.45 35.27,70.61 "/>
   <polygon class="fil6" points="16.26,36.42 16.07,35.62 "/>
   <polygon class="fil5" points="35,70.6 34.61,70.77 "/>
   <polygon class="fil5" points="45.51,68.36 45.07,68.53 "/>
   <polygon class="fil3" points="58.56,65.13 58.34,65.27 "/>
   <polygon class="fil5" points="34.31,70.74 33.83,70.95 "/>
   <polygon class="fil3" points="21.29,51.77 21.08,50.82 "/>
   <polygon class="fil5" points="18.21,39.06 18.03,38.26 "/>
   <polygon class="fil5" points="18.07,37.43 17.89,36.59 "/>
   <polygon class="fil3" points="65.35,63.68 65.11,63.83 "/>
   <polygon class="fil6" points="16.95,24.7 16.76,23.91 "/>
  </g>
 </g>
</svg>
